<svg width="135" height="29" xmlns="http://www.w3.org/2000/svg"><g fill="none" fill-rule="evenodd"><path d="M87.725 10.467c.738-.184 1.72-.38 2.942-.588 1.222-.208 2.63-.312 4.222-.312 1.43 0 2.618.203 3.564.606.946.404 1.702.97 2.268 1.696.565.727.962 1.598 1.194 2.613.23 1.016.346 2.134.346 3.357v10.106h-3.22V18.53c0-1.108-.074-2.053-.224-2.838-.15-.784-.398-1.419-.744-1.903a2.95 2.95 0 00-1.384-1.056c-.577-.219-1.293-.328-2.147-.328-.345 0-.703.011-1.072.034-.37.023-.722.052-1.055.087-.335.034-.636.075-.9.12-.266.047-.457.082-.571.104v15.194h-3.219V10.467zM112.816 28.36c-1.454 0-2.729-.231-3.825-.692-1.096-.462-2.02-1.108-2.769-1.939-.75-.83-1.309-1.816-1.678-2.959-.37-1.141-.553-2.405-.553-3.79 0-1.383.201-2.652.605-3.806.403-1.153.974-2.151 1.713-2.994a7.685 7.685 0 012.716-1.972c1.074-.473 2.268-.71 3.583-.71.807 0 1.614.07 2.422.208.807.138 1.58.358 2.32.657l-.728 2.734a7.755 7.755 0 00-1.678-.553 9.51 9.51 0 00-2.025-.208c-1.8 0-3.178.566-4.135 1.696-.958 1.13-1.437 2.78-1.437 4.949 0 .969.11 1.857.33 2.665.218.808.564 1.5 1.037 2.076a4.633 4.633 0 001.817 1.333c.738.311 1.638.467 2.7.467.853 0 1.626-.08 2.319-.243.691-.16 1.234-.334 1.626-.519l.45 2.7c-.185.115-.45.225-.796.329-.346.104-.74.195-1.177.277a21.9 21.9 0 01-1.401.207c-.496.057-.975.087-1.436.087M130.707 17.216c.023-1.454-.34-2.648-1.09-3.582-.75-.935-1.782-1.402-3.097-1.402-.739 0-1.39.145-1.956.433a4.608 4.608 0 00-1.436 1.125 5.182 5.182 0 00-.917 1.592 7.866 7.866 0 00-.432 1.834h8.928zm-12.354 1.765c0-1.592.23-2.982.692-4.17.46-1.188 1.073-2.175 1.834-2.96a7.454 7.454 0 012.63-1.764 8.206 8.206 0 013.046-.589c2.422 0 4.28.756 5.572 2.267 1.292 1.511 1.937 3.813 1.937 6.904v.537c0 .22-.012.421-.034.606h-12.32c.138 1.869.68 3.287 1.626 4.256.946.97 2.422 1.454 4.43 1.454 1.13 0 2.082-.098 2.855-.294.773-.196 1.355-.386 1.748-.571l.45 2.699c-.392.208-1.08.427-2.06.658-.98.23-2.093.346-3.34.346-1.569 0-2.924-.237-4.066-.71s-2.082-1.125-2.82-1.955c-.739-.83-1.287-1.817-1.644-2.959-.358-1.142-.536-2.393-.536-3.755zM74.057 6.24c1.287 0 2.44.23 3.46.688.391.176.754.379 1.101.6l2.135-2.135a10.263 10.263 0 00-2.19-1.18 12.031 12.031 0 00-4.373-.795 12.4 12.4 0 00-4.442.795 10.309 10.309 0 00-3.114 1.871l1.766 2.27c.625-.601 1.348-1.057 2.18-1.426 1.031-.459 2.19-.688 3.477-.688M82.084 13.113c.179.881.276 1.82.276 2.826 0 1.482-.195 2.829-.583 4.04-.389 1.211-.941 2.24-1.657 3.086-.716.847-1.584 1.445-2.604 1.904-1.02.458-2.172.688-3.46.688-1.286 0-2.445-.23-3.477-.688-.082-.036-.156-.08-.235-.118l-.927 2.655c.111.047.217.103.331.146 1.394.53 2.874.795 4.442.795 1.544 0 3.002-.265 4.373-.795a10.2 10.2 0 003.613-2.368c1.037-1.049 1.86-2.356 2.472-3.924.61-1.567.916-3.376.916-5.428 0-2.037-.303-3.834-.906-5.394l-2.574 2.575z" fill="#333E48"/><path d="M82.154 6.574s.961.91 1.684 2.253l-10.406 10.31-4.09-5.37 1.58-2.173 2.716 3.545 8.516-8.565zM12.363 28.571c-1.696 0-3.242-.279-4.636-.836a9.86 9.86 0 01-3.59-2.44c-1-1.07-1.772-2.388-2.318-3.957C1.273 19.77 1 17.975 1 15.953c0-2.021.308-3.817.924-5.385.615-1.569 1.446-2.887 2.492-3.956a10.54 10.54 0 013.66-2.44c1.394-.558 2.881-.837 4.461-.837 1 0 1.9.07 2.702.21.801.139 1.498.302 2.091.487.593.186 1.075.372 1.447.558.371.186.627.325.766.418l-.976 2.789c-.209-.14-.51-.29-.906-.453a18.975 18.975 0 00-1.342-.488c-.5-.163-1.045-.296-1.638-.401a10.31 10.31 0 00-1.795-.157c-1.278 0-2.428.22-3.45.662A7.139 7.139 0 006.82 8.877c-.72.837-1.272 1.854-1.656 3.05-.383 1.197-.575 2.539-.575 4.026 0 1.44.169 2.754.506 3.939.337 1.185.842 2.202 1.516 3.05a6.81 6.81 0 002.527 1.97c1.01.464 2.19.696 3.538.696 1.557 0 2.846-.162 3.869-.488 1.022-.325 1.789-.615 2.3-.871l.872 2.788c-.163.117-.453.262-.872.436-.418.174-.94.343-1.568.505-.628.163-1.36.303-2.196.419a19.81 19.81 0 01-2.719.174zM22.09 28.048V1.558L25.332 1v9.272a10.988 10.988 0 011.934-.54 11.106 11.106 0 012.04-.192c1.44 0 2.637.203 3.59.61.952.406 1.713.976 2.282 1.708.57.732.97 1.609 1.203 2.631.232 1.023.349 2.15.349 3.381v10.178h-3.242v-9.48c0-1.116-.076-2.069-.227-2.859-.15-.79-.4-1.429-.749-1.917a2.966 2.966 0 00-1.394-1.063c-.581-.22-1.302-.331-2.161-.331-.349 0-.709.023-1.08.07-.373.046-.727.098-1.064.156-.337.059-.639.122-.906.192s-.46.128-.575.174v15.058H22.09zM46.06 25.713c.766 0 1.446-.018 2.039-.052a8.9 8.9 0 001.48-.192v-5.403c-.231-.116-.61-.215-1.132-.296a12.6 12.6 0 00-1.9-.122c-.488 0-1.005.035-1.55.104a4.78 4.78 0 00-1.5.436 3.21 3.21 0 00-1.132.906c-.302.384-.453.89-.453 1.517 0 1.162.371 1.969 1.115 2.422.744.453 1.754.68 3.032.68zM45.78 9.47c1.302 0 2.4.168 3.294.505.895.337 1.615.814 2.162 1.43a5.411 5.411 0 011.167 2.195c.233.849.349 1.784.349 2.806v11.329l-1.168.191c-.5.082-1.063.157-1.69.227-.628.07-1.308.133-2.04.191-.731.059-1.458.088-2.178.088-1.022 0-1.964-.105-2.823-.314-.86-.21-1.604-.54-2.231-.993a4.549 4.549 0 01-1.464-1.796c-.349-.743-.523-1.638-.523-2.683 0-1 .203-1.86.61-2.58a4.86 4.86 0 011.656-1.743c.697-.441 1.51-.766 2.44-.976.93-.209 1.905-.313 2.928-.313.325 0 .662.017 1.01.052.349.035.68.081.994.14.313.058.587.11.819.156.232.047.395.082.488.105v-.906a7.29 7.29 0 00-.174-1.586 3.627 3.627 0 00-.628-1.395c-.302-.406-.714-.732-1.237-.976-.523-.244-1.203-.366-2.04-.366-1.068 0-2.003.076-2.805.227-.802.151-1.4.308-1.795.47l-.384-2.683c.419-.186 1.116-.366 2.092-.54a18.064 18.064 0 013.172-.262zM59.133 9.923H66v2.719h-6.867v8.365c0 .907.07 1.656.21 2.249.138.592.348 1.057.626 1.394.28.337.628.575 1.046.714.418.14.906.21 1.464.21.976 0 1.76-.11 2.353-.332.592-.22 1.005-.377 1.237-.47l.628 2.684c-.326.162-.895.366-1.708.61-.814.244-1.743.366-2.789.366-1.231 0-2.248-.157-3.05-.47-.801-.315-1.446-.785-1.934-1.413-.488-.627-.83-1.4-1.028-2.318-.198-.917-.297-1.98-.297-3.189V4.87l3.242-.558v5.612z" fill="#B731A9"/></g></svg>