<svg width="100" height="90" xmlns="http://www.w3.org/2000/svg"><g transform="translate(4.512 4)" fill="none" fill-rule="evenodd"><path d="M23.488 11.458h42.6c6.296 0 11.4 5.104 11.4 11.4v32.918c0 6.296-5.104 11.4-11.4 11.4h-41.24l-12.76 7V22.858c0-6.296 5.104-11.4 11.4-11.4z" fill="#FFF" fill-rule="nonzero"/><path d="M23.488 11.458h42.6c6.296 0 11.4 5.104 11.4 11.4v12.12h-65.4v-12.12c0-6.296 5.104-11.4 11.4-11.4z" fill="#C452B9"/><path d="M66.088 11.458c6.296 0 11.4 5.104 11.4 11.4v32.918c0 6.296-5.104 11.4-11.4 11.4h-41.24l-12.76 7V22.858c0-6.296 5.104-11.4 11.4-11.4h42.6zm0 1.8h-42.6c-5.21 0-9.451 4.151-9.596 9.327l-.004.273v48.277l10.498-5.76h41.702c5.21 0 9.452-4.15 9.596-9.326l.004-.273V22.858c0-5.21-4.15-9.451-9.326-9.596l-.274-.004z" fill="#3E4952" fill-rule="nonzero"/><g fill="#3E4952" fill-rule="nonzero"><path d="M45.475 5.545v6.24h-1.8v-6.24z"/><path d="M44.63 7.237a3.61 3.61 0 0 0 3.6-3.619A3.61 3.61 0 0 0 44.63 0a3.61 3.61 0 0 0-3.6 3.618 3.61 3.61 0 0 0 3.6 3.619z"/></g><rect fill="#FFF" x="20.488" y="23.519" width="48" height="20.504" rx="10.252"/><path d="M58.236 23.52c5.662 0 10.252 4.589 10.252 10.251 0 5.662-4.59 10.252-10.252 10.252H30.74c-5.662 0-10.252-4.59-10.252-10.252 0-5.662 4.59-10.252 10.252-10.252h27.496zm0 1.8H30.74a8.452 8.452 0 0 0-.254 16.9l.254.003h27.496a8.452 8.452 0 0 0 .254-16.9l-.254-.004z" fill="#3E4952" fill-rule="nonzero"/><g transform="translate(33.088 31.962)" fill="#3E4952"><ellipse transform="matrix(-1 0 0 1 40.387 0)" cx="20.193" cy="3.015" rx="3" ry="3.015"/><ellipse transform="matrix(-1 0 0 1 6 0)" cx="3" cy="3.015" rx="3" ry="3.015"/></g><path fill="#3E4952" fill-rule="nonzero" d="M36.36 65.418l1.8.032-.055 2.92-.084 3.523-.06 1.854-.075 1.87-.069 1.264-.043.63-.03.368-.078.897-1.793-.157.107-1.253.056-.844.04-.747.064-1.46.048-1.361.067-2.365.07-3.247zM53.677 65.418l-1.8.032.054 2.92.085 3.523.059 1.854.076 1.87.068 1.264.044.63.03.368.077.897 1.794-.157-.107-1.253-.056-.844-.04-.747-.064-1.46-.048-1.361-.067-2.365-.07-3.247zM6.705 54.217l-1.8-.051.026-.9c.099-3.49.58-6.257 1.462-8.31.848-1.976 2.454-3.979 4.808-6.026l.378-.324.688-.58 1.16 1.376-.687.58c-2.364 1.994-3.925 3.895-4.693 5.684-.738 1.72-1.176 4.102-1.3 7.139l-.017.512-.025.9zM82.506 29.08l2.137.06-.03 1.069c-.1 3.51-.585 6.296-1.476 8.372-.86 2.001-2.48 4.023-4.852 6.086l-.38.326-.818.689-1.378-1.634.817-.69c2.346-1.977 3.89-3.859 4.647-5.62.73-1.699 1.163-4.062 1.286-7.08l.017-.51.03-1.068zM53.465 49.384l1.296 1.25-.625.647c-3.256 3.378-6.575 5.1-9.948 5.1-3.264 0-6.477-1.612-9.632-4.778l-.316-.322-.624-.648 1.296-1.25.624.649c2.944 3.054 5.825 4.549 8.652 4.549 2.73 0 5.51-1.394 8.348-4.239l.304-.31.625-.648z"/></g></svg>