<svg width="100" height="90" xmlns="http://www.w3.org/2000/svg"><g fill="none" fill-rule="evenodd"><path d="M78.164 68.678V19.803a4.2 4.2 0 0 0-4.2-4.2H23.717a4.2 4.2 0 0 0-4.2 4.2v39.113l12.069 10.962h45.378a1.2 1.2 0 0 0 1.2-1.2z" fill="#FFF"/><path d="M17.764 34.901V19.803a6 6 0 0 1 6-6h50a6 6 0 0 1 6 6v15.071l-62 .027z" fill="#0DC7C7"/><path fill="#3E4952" fill-rule="nonzero" d="M79.5 33.5v2H18.326v-2z"/><path d="M76.964 71.678H30.89L17.717 59.712V19.803a6 6 0 0 1 6-6h50.247a6 6 0 0 1 6 6v48.875a3 3 0 0 1-3 3zm0-1.8a1.2 1.2 0 0 0 1.2-1.2V19.803a4.2 4.2 0 0 0-4.2-4.2H23.717a4.2 4.2 0 0 0-4.2 4.2v39.113l12.069 10.962h45.378z" fill="#3E4952" fill-rule="nonzero"/><path d="M31.217 71.381v-11.76a.3.3 0 0 0-.231-.293l-.069-.008h-12.3v-1.8h12.3a2.1 2.1 0 0 1 2.095 1.95l.005.15v11.761h-1.8z" fill="#3E4952" fill-rule="nonzero"/><path d="M49.517 24.65H36.053c-5.662 0-10.251 4.589-10.251 10.251 0 5.662 4.59 10.252 10.251 10.252h1.606c6.55 0 11.858-5.309 11.858-11.858v-8.646z" fill="#FFF"/><path d="M36.053 24.65c-5.662 0-10.251 4.589-10.251 10.251 0 5.662 4.59 10.252 10.251 10.252h1.606c6.55 0 11.858-5.309 11.858-11.858v-8.646H36.053zm11.664 8.645c0 5.462-4.354 9.907-9.78 10.054l-.278.004h-1.606a8.452 8.452 0 0 1-.253-16.9l.253-.004h11.665v6.846z" fill="#3E4952" fill-rule="nonzero"/><path d="M48.002 24.65h13.463c5.662 0 10.252 4.589 10.252 10.251 0 5.662-4.59 10.252-10.252 10.252H59.86c-6.549 0-11.857-5.309-11.857-11.858v-8.646z" fill="#FFF"/><path d="M61.465 24.65c5.662 0 10.252 4.589 10.252 10.251 0 5.662-4.59 10.252-10.252 10.252H59.86c-6.549 0-11.857-5.309-11.857-11.858v-8.646h13.463zm-11.663 8.645c0 5.462 4.354 9.907 9.78 10.054l.277.004h1.606a8.452 8.452 0 0 0 .254-16.9l-.254-.004H49.801v6.846z" fill="#3E4952" fill-rule="nonzero"/><g transform="translate(36.917 31.886)" fill="#3E4952"><ellipse transform="matrix(-1 0 0 1 40.387 0)" cx="20.193" cy="3.015" rx="3" ry="3.015"/><ellipse transform="matrix(-1 0 0 1 6 0)" cx="3" cy="3.015" rx="3" ry="3.015"/></g><path d="M58.371 51.775l.846 1.589-.794.423c-3.226 1.718-6.47 2.581-9.723 2.581-3.09 0-6.172-.78-9.239-2.33l-.484-.251-.794-.423.846-1.589.794.423c2.974 1.583 5.93 2.37 8.877 2.37 2.792 0 5.592-.706 8.408-2.126l.469-.244.794-.423zM41.717 70.486v11.449h-1.8v-11.45zM57.917 70.486v11.449h-1.8v-11.45zM18.676 42.84l.102 1.797-.899.05c-4.003.226-6.324 1.065-7.498 2.43-.611.711-.912 1.44-1.098 2.709l-.061.471-.054.521-.024.281-.046.606-.062.898-1.796-.124.062-.898c.013-.182.027-.36.043-.536l.052-.516c.019-.168.04-.333.062-.496l.075-.476c.693-4.046 2.756-5.926 8.487-6.528l.678-.063c.231-.02.468-.037.71-.053l1.267-.073z" fill="#3E4952" fill-rule="nonzero"/><g><path d="M59.875 9.925l-4.199-.004v-.269c-.003-3.466-2.829-6.279-6.312-6.282-3.483-.003-6.304 2.805-6.3 6.271v.27l-4.293-.005c-2.497-.002-4.52 2.012-4.518 4.497.002 2.486 2.029 4.503 4.526 4.505l21.104.018c2.497.002 4.52-2.011 4.518-4.497-.002-2.485-2.028-4.502-4.526-4.504z" fill="#FFF"/><path d="M49.364 3.37c-3.483-.003-6.304 2.805-6.3 6.271v.27l-4.293-.005c-2.497-.002-4.52 2.012-4.518 4.497.002 2.486 2.029 4.503 4.526 4.505l21.104.018c2.497.002 4.52-2.011 4.518-4.497-.002-2.485-2.028-4.502-4.526-4.504l-4.199-.004v-.269c-.003-3.466-2.829-6.279-6.312-6.282zm-.001 1.8c2.42.002 4.395 1.9 4.508 4.273l.005.21.002 2.066 5.996.006c1.506.001 2.726 1.215 2.727 2.706a2.7 2.7 0 0 1-2.55 2.69l-.167.005-21.103-.018c-1.507-.002-2.727-1.216-2.728-2.706a2.7 2.7 0 0 1 2.551-2.69l.166-.006 6.095.006-.002-2.072c-.002-2.399 1.897-4.357 4.288-4.465l.212-.005z" fill="#3E4952" fill-rule="nonzero"/><path d="M49.266 11.716c-.999-.001-1.81-.808-1.81-1.802a1.8 1.8 0 0 1 1.807-1.799c1 .001 1.81.808 1.81 1.802a1.8 1.8 0 0 1-1.807 1.799z" fill="#3E4952" fill-rule="nonzero"/></g><path d="M82.436 55.015l.983 1.508.754-.491c4.628-3.018 6.31-5.73 4.957-8.25-1.03-1.92-3.73-3.392-8.234-4.835l-1.287-.403-.536 1.718.859.268c.404.126.793.253 1.166.379l.725.253.684.252.643.254c2.383.972 3.851 1.953 4.394 2.966.67 1.248-.156 2.864-3.035 4.98l-.499.357c-.172.12-.352.242-.537.366l-1.037.678z" fill="#3E4952" fill-rule="nonzero"/></g></svg>