<svg width="171" height="31" xmlns="http://www.w3.org/2000/svg"><g fill="none" fill-rule="evenodd"><path d="M113.886 8.567c.91-.224 2.119-.462 3.626-.715 1.506-.252 3.241-.379 5.204-.379 1.763 0 3.227.246 4.392.736 1.166.491 2.098 1.178 2.795 2.061.696.883 1.187 1.942 1.472 3.176.284 1.234.426 2.594.426 4.08v12.281h-3.967v-11.44c0-1.346-.093-2.496-.277-3.449-.185-.953-.491-1.725-.917-2.314a3.632 3.632 0 0 0-1.706-1.282c-.711-.267-1.594-.4-2.646-.4-.426 0-.867.014-1.321.042-.456.028-.89.063-1.3.106-.414.041-.784.09-1.11.146-.328.057-.563.099-.704.127v18.464h-3.967V8.567ZM144.81 30.312c-1.791 0-3.362-.28-4.714-.841-1.35-.561-2.489-1.346-3.412-2.356-.924-1.009-1.614-2.208-2.068-3.596-.456-1.388-.683-2.923-.683-4.606 0-1.682.249-3.224.747-4.626.497-1.402 1.2-2.615 2.11-3.638.91-1.024 2.027-1.822 3.349-2.398 1.323-.574 2.795-.862 4.415-.862.995 0 1.99.084 2.986.252.995.169 1.947.435 2.858.8l-.896 3.322a9.652 9.652 0 0 0-2.068-.673 11.88 11.88 0 0 0-2.496-.252c-2.218 0-3.917.688-5.097 2.061-1.18 1.374-1.77 3.38-1.77 6.014 0 1.178.134 2.258.405 3.24.27.981.696 1.822 1.279 2.522.583.702 1.33 1.241 2.24 1.62.91.379 2.018.568 3.327.568 1.052 0 2.004-.098 2.858-.295.853-.195 1.52-.406 2.005-.63l.555 3.28c-.229.14-.555.274-.982.4a14.03 14.03 0 0 1-1.45.337 27.35 27.35 0 0 1-1.727.252 15.68 15.68 0 0 1-1.77.105M166.862 16.769c.028-1.767-.42-3.218-1.343-4.354-.924-1.135-2.197-1.703-3.817-1.703-.911 0-1.714.175-2.411.526a5.668 5.668 0 0 0-1.77 1.367 6.278 6.278 0 0 0-1.13 1.934 9.449 9.449 0 0 0-.533 2.23h11.004Zm-15.227 2.145c0-1.935.283-3.624.853-5.068.568-1.444 1.323-2.643 2.26-3.597a9.196 9.196 0 0 1 3.243-2.145 10.24 10.24 0 0 1 3.753-.715c2.986 0 5.275.919 6.868 2.755 1.592 1.837 2.388 4.634 2.388 8.391v.652c0 .267-.015.512-.042.736h-15.185c.17 2.272.838 3.996 2.004 5.174 1.166 1.177 2.986 1.766 5.46 1.766 1.393 0 2.566-.119 3.519-.358.952-.237 1.67-.469 2.154-.694l.554 3.28c-.483.253-1.33.52-2.537.8-1.21.28-2.58.421-4.116.421-1.935 0-3.605-.288-5.013-.862-1.408-.575-2.566-1.367-3.476-2.377-.91-1.01-1.586-2.208-2.026-3.596-.441-1.388-.66-2.908-.66-4.563ZM97.04 3.43c1.586 0 3.007.278 4.263.835.483.215.93.46 1.358.729l2.631-2.595a12.707 12.707 0 0 0-2.698-1.433C100.904.322 99.107 0 97.204 0c-1.932 0-3.757.322-5.475.966A12.742 12.742 0 0 0 87.89 3.24L90.067 6c.771-.731 1.662-1.285 2.686-1.734 1.272-.557 2.7-.835 4.286-.835M106.932 11.782c.221 1.071.34 2.212.34 3.434 0 1.802-.24 3.438-.717 4.91-.48 1.473-1.16 2.723-2.043 3.751-.882 1.03-1.952 1.757-3.209 2.314-1.256.557-2.678.836-4.264.836-1.586 0-3.014-.279-4.286-.836-.101-.044-.192-.097-.29-.143l-1.142 3.226c.137.057.267.125.408.177 1.717.645 3.542.967 5.475.967 1.902 0 3.7-.322 5.39-.967a12.588 12.588 0 0 0 4.452-2.877c1.279-1.275 2.294-2.864 3.047-4.769.752-1.904 1.129-4.103 1.129-6.597 0-2.475-.374-4.66-1.116-6.555l-3.174 3.13Z" fill="#333E48"/><path d="M107.019 3.835s1.185 1.107 2.076 2.738L96.27 19.103l-5.04-6.527 1.947-2.64 3.347 4.308L107.02 3.835Z" fill="#00A89C"/><path d="M4.146 30.45V16.935h12.181v-3.474H4.146V4.61h13.72V1.093H0v29.356h4.146Zm25.157.55c1.51 0 2.907-.275 4.189-.826a9.493 9.493 0 0 0 3.312-2.351c.926-1.017 1.646-2.231 2.159-3.643.513-1.412.77-2.994.77-4.745 0-1.722-.257-3.297-.77-4.723-.513-1.426-1.233-2.648-2.159-3.664a9.493 9.493 0 0 0-3.312-2.351c-1.282-.55-2.679-.826-4.189-.826-1.51 0-2.906.275-4.188.826a9.493 9.493 0 0 0-3.313 2.35c-.926 1.017-1.645 2.239-2.158 3.665-.513 1.426-.77 3-.77 4.723 0 1.751.257 3.333.77 4.745s1.232 2.626 2.158 3.643a9.493 9.493 0 0 0 3.313 2.351c1.282.55 2.678.826 4.188.826Zm0-3.474c-1.937 0-3.469-.727-4.594-2.181-1.126-1.455-1.689-3.424-1.689-5.91 0-2.485.563-4.455 1.689-5.91 1.125-1.453 2.657-2.18 4.594-2.18 1.938 0 3.47.727 4.595 2.18 1.126 1.455 1.688 3.425 1.688 5.91 0 2.486-.562 4.455-1.688 5.91-1.126 1.454-2.657 2.181-4.595 2.181Zm16.952 2.923V11.937c.228-.056.705-.162 1.432-.317a10.5 10.5 0 0 1 2.2-.233c1.14 0 2.074.077 2.8.233.727.155 1.247.29 1.56.402l.684-3.431a7.223 7.223 0 0 0-.79-.19c-.357-.071-.748-.142-1.176-.213-.427-.07-.862-.127-1.303-.169a12.465 12.465 0 0 0-1.176-.064c-1.738 0-3.305.149-4.701.445-1.397.297-2.565.614-3.505.953V30.45h3.975Zm14.514 0V11.853c.114-.029.342-.07.684-.127.342-.057.72-.106 1.133-.149.413-.042.848-.077 1.304-.106.455-.028.883-.042 1.282-.042.94 0 1.717.148 2.33.445a3.318 3.318 0 0 1 1.452 1.377c.357.62.606 1.398.748 2.33.143.931.214 2.047.214 3.346v11.522h3.975V18.08c0-.96-.057-1.877-.17-2.753a14.432 14.432 0 0 0-.514-2.414c.314-.283.905-.6 1.774-.953.87-.353 1.973-.53 3.312-.53.97 0 1.76.148 2.373.445a3.318 3.318 0 0 1 1.453 1.377c.356.62.598 1.398.726 2.33.129.931.193 2.047.193 3.346v11.522h3.975V18.08c0-1.468-.107-2.823-.32-4.066-.215-1.242-.628-2.316-1.24-3.22-.613-.903-1.46-1.602-2.543-2.096-1.083-.494-2.48-.742-4.19-.742-.882 0-1.709.092-2.478.276-.77.183-1.468.395-2.094.635-.627.24-1.154.487-1.582.742-.427.254-.74.451-.94.593a6.302 6.302 0 0 0-2.436-1.674c-.97-.38-2.166-.572-3.59-.572-1.967 0-3.698.128-5.194.382s-2.7.494-3.612.72v21.392h3.975Z" fill="#00A89C" fill-rule="nonzero"/></g></svg>