<svg width="559" height="381" xmlns="http://www.w3.org/2000/svg" xmlns:xlink="http://www.w3.org/1999/xlink"><defs><path id="a" d="M0 0h157v163H0z"/><path d="M116 131.302l3-1" id="c"/><path id="d" d="M0 0h157v163H0z"/></defs><g fill="none" fill-rule="evenodd"><path d="M475.528 144H338.413a3 3 0 0 0-3 2.988l-.405 103a3 3 0 0 0 2.812 3.006l.188.006h137.52a3 3 0 0 0 3-3V147a3 3 0 0 0-3-3zm-137.115 2h137.115a1 1 0 0 1 1 1v103a1 1 0 0 1-1 1H338.004a1 1 0 0 1-.996-1.004l.405-103a1 1 0 0 1 1-.996z" fill="#ECECEC" fill-rule="nonzero"/><path d="M360.25 166.611c.81 0 1.533-.12 2.171-.361v-1.142a11.63 11.63 0 0 1-1.007.265 4.805 4.805 0 0 1-1.002.103c-.798 0-1.408-.256-1.829-.768-.42-.512-.631-1.268-.631-2.266 0-.954.218-1.701.656-2.243.438-.542 1.04-.813 1.804-.813.338 0 .66.05.966.148.306.098.596.212.87.342l.48-1.108a5.125 5.125 0 0 0-2.305-.523c-.79 0-1.479.169-2.065.507a3.317 3.317 0 0 0-1.344 1.458c-.31.635-.465 1.375-.465 2.221 0 1.343.319 2.376.957 3.098.638.721 1.553 1.082 2.744 1.082zm5.255-.111v-3.25h1.314l1.948 3.25h1.514l-2.299-3.601c1.054-.43 1.581-1.153 1.581-2.166 0-.794-.252-1.388-.757-1.781s-1.282-.59-2.332-.59h-2.3v8.138h1.331zm.924-4.353h-.924v-2.66h.88c.605 0 1.057.1 1.358.3.3.2.45.53.45.99 0 .453-.138.795-.417 1.025-.278.23-.727.345-1.347.345zm8.45 4.464c1.213 0 2.151-.367 2.814-1.102.662-.735.993-1.764.993-3.09 0-1.328-.33-2.357-.99-3.089-.661-.73-1.596-1.096-2.806-1.096-1.228 0-2.174.36-2.836 1.08-.662.72-.994 1.751-.994 3.095 0 1.343.33 2.38.988 3.109.66.729 1.603 1.093 2.831 1.093zm0-1.135c-.794 0-1.394-.26-1.798-.777-.404-.517-.607-1.277-.607-2.28 0-.997.203-1.754.61-2.27.406-.516 1.008-.774 1.806-.774.79 0 1.385.258 1.784.774s.599 1.273.599 2.27c0 1.014-.202 1.777-.604 2.289-.403.512-1 .768-1.79.768zm7.298 1.135c.92 0 1.642-.206 2.165-.618.523-.411.785-.98.785-1.703 0-.367-.065-.686-.195-.957a2.047 2.047 0 0 0-.612-.73c-.279-.215-.717-.447-1.314-.695-.53-.22-.898-.396-1.102-.53a1.365 1.365 0 0 1-.44-.425 1.046 1.046 0 0 1-.134-.543c0-.308.112-.555.334-.743.223-.187.55-.28.98-.28.568 0 1.214.151 1.937.456l.423-1.086a5.708 5.708 0 0 0-2.327-.512c-.812 0-1.46.195-1.942.584-.483.39-.724.925-.724 1.604 0 .541.152 1.005.457 1.391.304.386.827.73 1.57 1.03.72.29 1.194.54 1.424.751.23.212.345.47.345.774a.98.98 0 0 1-.375.807c-.25.2-.64.3-1.166.3-.36 0-.75-.05-1.167-.15a6.143 6.143 0 0 1-1.182-.411v1.258c.586.285 1.34.428 2.26.428zm6.267 0c.92 0 1.642-.206 2.166-.618.523-.411.784-.98.784-1.703 0-.367-.064-.686-.194-.957a2.047 2.047 0 0 0-.613-.73c-.278-.215-.716-.447-1.313-.695-.531-.22-.898-.396-1.102-.53a1.365 1.365 0 0 1-.44-.425 1.046 1.046 0 0 1-.134-.543c0-.308.112-.555.334-.743.223-.187.55-.28.98-.28.568 0 1.213.151 1.937.456l.423-1.086a5.708 5.708 0 0 0-2.327-.512c-.812 0-1.46.195-1.942.584-.483.39-.724.925-.724 1.604 0 .541.152 1.005.456 1.391.305.386.828.73 1.57 1.03.72.29 1.195.54 1.425.751.23.212.345.47.345.774a.98.98 0 0 1-.375.807c-.251.2-.64.3-1.167.3-.36 0-.748-.05-1.166-.15a6.143 6.143 0 0 1-1.183-.411v1.258c.587.285 1.34.428 2.26.428zm6.713-2.61v-1.114h-2.86v1.114h2.86zm3.223 2.61c.92 0 1.642-.206 2.166-.618.523-.411.785-.98.785-1.703 0-.367-.065-.686-.195-.957a2.047 2.047 0 0 0-.613-.73c-.278-.215-.716-.447-1.313-.695-.53-.22-.898-.396-1.102-.53a1.365 1.365 0 0 1-.44-.425 1.046 1.046 0 0 1-.134-.543c0-.308.112-.555.334-.743.223-.187.55-.28.98-.28.568 0 1.213.151 1.937.456l.423-1.086a5.708 5.708 0 0 0-2.327-.512c-.812 0-1.46.195-1.942.584-.483.39-.724.925-.724 1.604 0 .541.152 1.005.456 1.391.305.386.828.73 1.57 1.03.72.29 1.195.54 1.425.751.23.212.345.47.345.774a.98.98 0 0 1-.375.807c-.25.2-.64.3-1.167.3-.36 0-.748-.05-1.166-.15a6.143 6.143 0 0 1-1.183-.411v1.258c.587.285 1.34.428 2.26.428zm9.13-.111v-1.13h-3.274v-2.555h3.067v-1.113h-3.067v-2.216h3.273v-1.124h-4.603v8.138h4.603zm6.534 0v-1.141H410.6v-6.997h-1.33v8.138h4.775zm6.179 0v-1.141h-3.446v-6.997h-1.33v8.138h4.776zm9.14 0v-1.141h-3.446v-6.997h-1.33v8.138h4.776zm6.006 0v-1.13h-3.273v-2.555h3.067v-1.113h-3.067v-2.216h3.273v-1.124h-4.603v8.138h4.603zm2.087 0l.796-2.26h3.112l.813 2.26h1.414l-3.045-8.171h-1.447l-3.045 8.171h1.402zm3.557-3.407h-2.37l.734-2.12c.193-.542.34-1.041.44-1.498.037.149.104.382.203.702.098.319.175.552.23.7l.763 2.216zm5.929 3.407c1.402 0 2.477-.355 3.223-1.066.745-.71 1.118-1.738 1.118-3.081 0-1.265-.36-2.247-1.08-2.945-.72-.697-1.727-1.046-3.022-1.046h-2.516v8.138h2.277zm0-1.119h-.947v-5.906h1.153c1.822 0 2.733.974 2.733 2.923 0 1.989-.98 2.983-2.94 2.983zm7.832 1.23c.92 0 1.642-.206 2.165-.618.523-.411.785-.98.785-1.703 0-.367-.065-.686-.195-.957a2.047 2.047 0 0 0-.612-.73c-.279-.215-.717-.447-1.314-.695-.53-.22-.898-.396-1.102-.53a1.365 1.365 0 0 1-.44-.425 1.046 1.046 0 0 1-.134-.543c0-.308.112-.555.334-.743.223-.187.55-.28.98-.28.568 0 1.214.151 1.937.456l.423-1.086a5.708 5.708 0 0 0-2.326-.512c-.813 0-1.46.195-1.943.584-.483.39-.724.925-.724 1.604 0 .541.152 1.005.457 1.391.304.386.827.73 1.57 1.03.72.29 1.194.54 1.424.751.23.212.346.47.346.774a.98.98 0 0 1-.376.807c-.25.2-.64.3-1.166.3-.36 0-.749-.05-1.167-.15a6.143 6.143 0 0 1-1.182-.411v1.258c.586.285 1.34.428 2.26.428z" fill="#333" fill-rule="nonzero"/><g transform="translate(382.2 198.2)"><path d="M34.587 23.2H10c-5.523 0-10-4.477-10-10s4.477-10 10-10h24.565" stroke="#A8ABE0" stroke-width="2.4"/><circle fill="#FEC6F9" cx="35.2" cy="2.8" r="2.8"/><circle fill="#A8ABE0" cx="33.6" cy="22.8" r="2.8"/></g><g transform="translate(382.2 201.4)"><path d="M34.587 20H10C4.477 20 0 15.523 0 10S4.477 0 10 0h24.565" stroke="#A8ABE0" stroke-width="2.4"/><circle fill="#A8ABE0" cx="33.6" cy="19.6" r="2.8"/></g><g transform="translate(402.2 204.2)" fill="#C7EEFF"><circle cx="7.2" cy="2.8" r="2.8"/><circle cx="2.8" cy="11.2" r="2.8"/></g><path d="M408.2 206.2v2.4h-15.6a2.8 2.8 0 0 0-.17 5.595l.17.005h10.716v2.4H392.6a5.2 5.2 0 0 1-.22-10.395l.22-.005h15.6z" fill="#C7EEFF" fill-rule="nonzero"/><g transform="translate(375.894 195.8)"><path d="M40.871 4.4v2.4H16.306a8.8 8.8 0 0 0-.259 17.596l.26.004h24.587v2.4H16.306c-6.185 0-11.2-5.014-11.2-11.2 0-6.089 4.86-11.043 10.911-11.196l.29-.004H40.87z" fill="#FEC6F9" fill-rule="nonzero"/><path d="M53.566-1.2v2.4H15.497C7.603 1.2 1.2 7.645 1.2 15.6c0 7.85 6.235 14.23 13.986 14.397l.311.003H53.6v2.4H15.497C6.274 32.4-1.2 24.877-1.2 15.6c0-9.169 7.301-16.625 16.376-16.797l.321-.003h38.069z" fill="#73E6E3" fill-rule="nonzero"/><circle fill="#FEC6F9" cx="39.906" cy="25.2" r="2.8"/></g><g transform="translate(365.094 185.8)"><path d="M25.674-1.2h12.783v2.4H25.674C12.157 1.2 1.2 12.125 1.2 25.6c0 13.34 10.739 24.181 24.07 24.397l.404.003h29.801v2.4h-29.8C10.832 52.4-1.2 40.402-1.2 25.6c0-14.654 11.793-26.56 26.43-26.796l.444-.004z" fill="#FFDD8C" fill-rule="nonzero"/><circle fill="#73E6E3" cx="66.706" cy="40.4" r="2.8"/><circle fill="#A8ABE0" cx="61.906" cy="45.6" r="2.8"/><circle fill="#FFDD8C" cx="56.306" cy="50.8" r="2.8"/><circle fill="#A8ABE0" cx="49.906" cy="5.2" r="2.8"/></g><g transform="translate(402.6 183)"><circle fill="#FFDD8C" cx="2.8" cy="2.8" r="2.8"/><circle fill="#73E6E3" cx="28.4" cy="12.8" r="2.8"/></g><path d="M388.49 189.8h24.55v2.4h-24.55c-9.127 0-16.596 8.562-16.596 19.2 0 10.52 7.304 19.01 16.292 19.197l.303.003h37.119v2.4h-37.119c-10.53 0-18.995-9.704-18.995-21.6 0-11.773 8.291-21.4 18.67-21.597l.325-.003z" fill="#A8ABE0" fill-rule="nonzero"/><path d="M436.32 217v-9.28h-1.244l-2.73 2.145.75.946a98.493 98.493 0 0 0 1.425-1.168 5.36 5.36 0 0 0 .359-.336c-.034.419-.051.986-.051 1.7V217h1.492zm6.202.127c.96 0 1.723-.23 2.285-.692.563-.461.845-1.075.845-1.84 0-.496-.154-.944-.46-1.346-.307-.402-.825-.785-1.553-1.15 1.143-.562 1.714-1.32 1.714-2.272 0-.677-.256-1.218-.768-1.622-.512-.404-1.208-.606-2.088-.606-.85 0-1.54.2-2.07.6-.528.4-.793.936-.793 1.61 0 .469.12.892.362 1.269.241.376.645.734 1.212 1.072-.66.322-1.135.69-1.425 1.102-.29.412-.435.877-.435 1.393 0 .791.278 1.403.832 1.834.554.432 1.335.648 2.342.648zm0-5.637c-.423-.199-.723-.369-.901-.51a1.54 1.54 0 0 1-.406-.474 1.229 1.229 0 0 1-.14-.59c0-.36.129-.644.387-.854.258-.21.599-.314 1.022-.314.432 0 .778.105 1.038.314.26.21.39.494.39.854a1.3 1.3 0 0 1-.314.866c-.21.248-.568.484-1.076.708zm-.025 4.494c-.53 0-.948-.121-1.257-.365-.309-.243-.463-.585-.463-1.025 0-.38.122-.718.368-1.012.245-.294.647-.564 1.206-.81l.184.083c.567.241.99.504 1.27.787.279.284.418.597.418.94 0 .431-.15.773-.453 1.025-.303.251-.727.377-1.273.377zm7.446 1.143c.96 0 1.722-.23 2.285-.692.563-.461.844-1.075.844-1.84 0-.496-.153-.944-.46-1.346-.307-.402-.824-.785-1.552-1.15 1.142-.562 1.714-1.32 1.714-2.272 0-.677-.256-1.218-.768-1.622-.512-.404-1.209-.606-2.089-.606-.85 0-1.54.2-2.07.6-.528.4-.793.936-.793 1.61 0 .469.121.892.362 1.269.241.376.646.734 1.213 1.072-.66.322-1.136.69-1.425 1.102-.29.412-.435.877-.435 1.393 0 .791.277 1.403.831 1.834.555.432 1.335.648 2.343.648zm0-5.637c-.424-.199-.724-.369-.902-.51a1.54 1.54 0 0 1-.406-.474 1.229 1.229 0 0 1-.14-.59c0-.36.13-.644.388-.854.258-.21.598-.314 1.022-.314.431 0 .777.105 1.037.314.26.21.39.494.39.854a1.3 1.3 0 0 1-.313.866c-.21.248-.569.484-1.076.708zm-.026 4.494c-.529 0-.948-.121-1.257-.365-.309-.243-.463-.585-.463-1.025 0-.38.123-.718.368-1.012.246-.294.648-.564 1.206-.81l.184.083c.567.241.99.504 1.27.787.28.284.419.597.419.94 0 .431-.151.773-.454 1.025-.303.251-.727.377-1.273.377z" fill="#C5C5C5" fill-rule="nonzero"/><g><path d="M302.528 171H165.413a3 3 0 0 0-3 2.988l-.405 103a3 3 0 0 0 2.812 3.006l.188.006h137.52a3 3 0 0 0 3-3V174a3 3 0 0 0-3-3zm-137.115 2h137.115a1 1 0 0 1 1 1v103a1 1 0 0 1-1 1H165.004a1 1 0 0 1-.996-1.004l.405-103a1 1 0 0 1 1-.996z" fill="#ECECEC" fill-rule="nonzero"/><g transform="translate(186 211)" fill="#FFDD8C"><circle cx="3" cy="34" r="3"/><g transform="translate(3)"><path fill-rule="nonzero" d="M-.918 32.602L12.876.772l13.147 22.953 12.246-2.11 14.05-14.193L65.51 36.574l12.232-14.668.118-.12 12.49-10.678 1.299 1.52L79.225 23.25l-14.22 17.056-13.31-29.412-12.454 12.584-14.257 2.457-11.86-20.707L.918 33.398z"/><circle cx="13" cy="3" r="3"/><circle cx="26" cy="24" r="3"/><circle cx="39" cy="22" r="3"/><circle cx="52" cy="9" r="3"/><circle cx="65" cy="38" r="3"/><circle cx="91" cy="12" r="3"/><circle cx="78" cy="22" r="3"/></g></g><path d="M190.73 196v-4.23c0-.572-.025-1.203-.077-1.893l-.028-.362h.044l4.003 6.485h1.63v-8.138h-1.219v4.264c0 .3.012.719.034 1.255.022.536.037.847.044.932h-.033l-3.991-6.451h-1.614V196h1.208zm12.325 0v-1.13h-3.274v-2.555h3.068v-1.113h-3.068v-2.216h3.274v-1.124h-4.604V196h4.604zm4.32 0l1.346-4.832c.056-.185.125-.467.209-.846.083-.378.144-.686.18-.924.02.156.073.433.162.832.09.4.163.705.223.916l1.38 4.854h1.448l2.12-8.138h-1.347l-1.157 4.731c-.212.82-.346 1.496-.401 2.027-.145-.88-.282-1.54-.412-1.982l-1.358-4.776h-1.32l-1.324 4.754c-.067.24-.141.556-.223.946-.082.39-.143.742-.184 1.058a20.497 20.497 0 0 0-.39-2.016l-1.163-4.742h-1.358l1.069 4.063 1.052 4.075h1.447zm11.51 0l.796-2.26h3.112l.813 2.26h1.414l-3.045-8.171h-1.448L217.483 196h1.402zm3.557-3.407h-2.371l.735-2.12c.193-.542.34-1.041.44-1.498.037.149.104.382.203.702.098.319.175.552.23.7l.763 2.216zm6.953 3.518c.809 0 1.532-.12 2.17-.361v-1.142a11.63 11.63 0 0 1-1.007.265 4.805 4.805 0 0 1-1.002.103c-.798 0-1.407-.256-1.828-.768-.422-.512-.632-1.268-.632-2.266 0-.954.219-1.701.657-2.243.438-.542 1.039-.813 1.803-.813.338 0 .66.05.966.148.306.098.597.212.871.342l.479-1.108a5.125 5.125 0 0 0-2.305-.523c-.79 0-1.478.169-2.065.507a3.317 3.317 0 0 0-1.344 1.458c-.31.635-.465 1.375-.465 2.221 0 1.343.32 2.376.958 3.098.638.721 1.553 1.082 2.744 1.082zm7.225 0c.809 0 1.533-.12 2.17-.361v-1.142a11.63 11.63 0 0 1-1.007.265 4.805 4.805 0 0 1-1.002.103c-.797 0-1.407-.256-1.828-.768-.421-.512-.632-1.268-.632-2.266 0-.954.219-1.701.657-2.243.438-.542 1.039-.813 1.803-.813.338 0 .66.05.966.148.306.098.597.212.871.342l.479-1.108a5.125 5.125 0 0 0-2.304-.523c-.79 0-1.48.169-2.066.507a3.317 3.317 0 0 0-1.344 1.458c-.31.635-.465 1.375-.465 2.221 0 1.343.32 2.376.958 3.098.638.721 1.553 1.082 2.744 1.082zm7.342 0c1.214 0 2.151-.367 2.814-1.102.662-.735.993-1.764.993-3.09 0-1.328-.33-2.357-.99-3.089-.66-.73-1.596-1.096-2.806-1.096-1.228 0-2.173.36-2.836 1.08-.662.72-.993 1.751-.993 3.095 0 1.343.329 2.38.988 3.109.658.729 1.602 1.093 2.83 1.093zm0-1.135c-.794 0-1.393-.26-1.798-.777-.404-.517-.607-1.277-.607-2.28 0-.997.204-1.754.61-2.27s1.008-.774 1.806-.774c.79 0 1.385.258 1.784.774.4.516.599 1.273.599 2.27 0 1.014-.202 1.777-.604 2.289-.403.512-1 .768-1.79.768zm8.678 1.135c.68 0 1.263-.121 1.75-.364.489-.243.862-.59 1.12-1.041.257-.451.386-.977.386-1.578v-5.266h-1.33V193c0 1.317-.627 1.976-1.881 1.976-.646 0-1.125-.16-1.437-.479-.311-.32-.467-.814-.467-1.486v-5.15h-1.336v5.244c0 .936.28 1.67.84 2.205.56.534 1.346.801 2.355.801zm6.546-.111v-4.23c0-.572-.026-1.203-.078-1.893l-.028-.362h.045l4.002 6.485h1.631v-8.138h-1.219v4.4c.004.286.014.66.034 1.119.022.536.037.847.044.932h-.033l-3.991-6.451h-1.615V196h1.208zm10.532 0v-6.997h2.393v-1.141h-6.117v1.141h2.393V196h1.33zm5.383.111c.92 0 1.642-.206 2.165-.618.523-.411.785-.98.785-1.703 0-.367-.065-.686-.195-.957a2.047 2.047 0 0 0-.612-.73c-.279-.215-.717-.447-1.314-.695-.53-.22-.898-.396-1.102-.53a1.365 1.365 0 0 1-.44-.425 1.046 1.046 0 0 1-.134-.543c0-.308.112-.555.334-.743.223-.187.55-.28.98-.28.568 0 1.214.151 1.937.456l.423-1.086a5.708 5.708 0 0 0-2.326-.512c-.813 0-1.46.195-1.943.584-.483.39-.724.925-.724 1.604 0 .541.152 1.005.457 1.391.304.386.827.73 1.57 1.03.72.29 1.194.54 1.424.751.23.212.345.47.345.774a.98.98 0 0 1-.375.807c-.25.2-.64.3-1.166.3-.36 0-.75-.05-1.167-.15a6.143 6.143 0 0 1-1.182-.411v1.258c.586.285 1.34.428 2.26.428z" fill="#333" fill-rule="nonzero"/></g><g><path d="M397.528 1H280.882a3 3 0 0 0-3 2.991l-.349 122a3 3 0 0 0 2.816 3.003l.184.006h116.995a3 3 0 0 0 3-3V4a3 3 0 0 0-3-3zM280.882 3h116.646a1 1 0 0 1 1 1v122a1 1 0 0 1-1 1H280.53a1 1 0 0 1-.998-1.003l.349-122a1 1 0 0 1 1-.997z" fill="#ECECEC" fill-rule="nonzero"/><path d="M304.157 24.111c.68 0 1.263-.121 1.75-.364.489-.243.862-.59 1.12-1.041.257-.451.386-.977.386-1.578v-5.266h-1.33V21c0 1.317-.627 1.976-1.881 1.976-.646 0-1.125-.16-1.437-.479-.311-.32-.467-.814-.467-1.486v-5.15h-1.336v5.244c0 .936.28 1.67.84 2.205.56.534 1.346.801 2.355.801zm6.669-.111v-3.045h.846c1.028 0 1.82-.226 2.376-.679.557-.453.835-1.104.835-1.954 0-.809-.253-1.421-.76-1.837-.506-.415-1.268-.623-2.284-.623h-2.344V24h1.33zm.706-4.164h-.706v-2.86h.924c.604 0 1.05.114 1.335.344.286.23.43.58.43 1.047 0 .504-.16.876-.48 1.113-.319.238-.82.356-1.503.356zm6.72 4.275c.92 0 1.641-.206 2.164-.618.524-.411.785-.98.785-1.703 0-.367-.065-.686-.195-.957a2.047 2.047 0 0 0-.612-.73c-.278-.215-.716-.447-1.313-.695-.531-.22-.899-.396-1.103-.53a1.365 1.365 0 0 1-.44-.425 1.046 1.046 0 0 1-.133-.543c0-.308.111-.555.334-.743.223-.187.55-.28.98-.28.567 0 1.213.151 1.937.456l.423-1.086a5.708 5.708 0 0 0-2.327-.512c-.813 0-1.46.195-1.943.584-.482.39-.723.925-.723 1.604 0 .541.152 1.005.456 1.391.305.386.828.73 1.57 1.03.72.29 1.195.54 1.425.751.23.212.345.47.345.774a.98.98 0 0 1-.376.807c-.25.2-.639.3-1.166.3-.36 0-.748-.05-1.166-.15a6.143 6.143 0 0 1-1.183-.411v1.258c.586.285 1.34.428 2.26.428zM327.38 24v-1.13h-3.273v-2.555h3.067v-1.113h-3.067v-2.216h3.273v-1.124h-4.603V24h4.603zm6.535 0v-1.141h-3.446v-6.997h-1.33V24h4.776zm6.179 0v-1.141h-3.446v-6.997h-1.33V24h4.776zm9.14 0v-1.141h-3.446v-6.997h-1.33V24h4.776zm6.006 0v-1.13h-3.273v-2.555h3.067v-1.113h-3.067v-2.216h3.273v-1.124h-4.604V24h4.604zm2.087 0l.796-2.26h3.112l.813 2.26h1.413l-3.044-8.171h-1.448L355.925 24h1.402zm3.557-3.407h-2.371l.735-2.12c.193-.542.34-1.041.44-1.498.037.149.104.382.203.702.098.319.175.552.23.7l.763 2.216zM366.812 24c1.403 0 2.477-.355 3.223-1.066.746-.71 1.12-1.738 1.12-3.081 0-1.265-.36-2.247-1.08-2.945-.72-.697-1.728-1.046-3.023-1.046h-2.516V24h2.276zm0-1.119h-.946v-5.906h1.152c1.822 0 2.734.974 2.734 2.923 0 1.989-.98 2.983-2.94 2.983zm7.832 1.23c.92 0 1.642-.206 2.166-.618.523-.411.785-.98.785-1.703 0-.367-.065-.686-.195-.957a2.047 2.047 0 0 0-.613-.73c-.278-.215-.716-.447-1.313-.695-.53-.22-.898-.396-1.102-.53a1.365 1.365 0 0 1-.44-.425 1.046 1.046 0 0 1-.134-.543c0-.308.112-.555.334-.743.223-.187.55-.28.98-.28.568 0 1.213.151 1.937.456l.423-1.086a5.708 5.708 0 0 0-2.327-.512c-.812 0-1.46.195-1.942.584-.483.39-.724.925-.724 1.604 0 .541.152 1.005.456 1.391.305.386.828.73 1.57 1.03.72.29 1.195.54 1.425.751.23.212.345.47.345.774a.98.98 0 0 1-.375.807c-.25.2-.64.3-1.167.3-.36 0-.748-.05-1.166-.15a6.143 6.143 0 0 1-1.183-.411v1.258c.587.285 1.34.428 2.26.428z" fill="#333" fill-rule="nonzero"/><path d="M302.196 111.5v-3.052h-.409l-.897.706.246.31c.266-.215.422-.343.469-.383.046-.04.086-.078.118-.11a7.317 7.317 0 0 0-.017.558v1.971h.49zm1.399.06c.1 0 .177-.028.23-.086a.332.332 0 0 0 .081-.235.324.324 0 0 0-.08-.23c-.052-.057-.13-.085-.231-.085-.1 0-.177.027-.23.081-.052.055-.079.132-.079.234 0 .1.027.179.08.236.052.057.129.086.229.086zm2.845-.06v-.432h-1.448v-.021l.53-.513a5.2 5.2 0 0 0 .51-.534c.102-.131.178-.259.228-.383a1.05 1.05 0 0 0 .074-.392.75.75 0 0 0-.257-.598c-.171-.149-.399-.223-.683-.223-.18 0-.351.03-.511.09a1.71 1.71 0 0 0-.495.305l.265.323c.144-.112.27-.19.38-.233a.916.916 0 0 1 .338-.065c.147 0 .261.04.344.119a.43.43 0 0 1 .124.326c0 .1-.017.194-.052.281-.035.088-.09.182-.166.281-.076.1-.23.268-.462.506l-.787.791v.372h2.068zM329.421 111.542c.383 0 .678-.08.885-.24.208-.159.311-.385.311-.679a.654.654 0 0 0-.183-.485c-.123-.122-.306-.198-.551-.229v-.016a.85.85 0 0 0 .476-.26.707.707 0 0 0 .169-.483.65.65 0 0 0-.26-.547c-.172-.133-.412-.199-.72-.199a1.6 1.6 0 0 0-.974.31l.24.342c.146-.095.273-.159.38-.191.107-.033.218-.05.334-.05.165 0 .29.036.375.107a.372.372 0 0 1 .128.303c0 .336-.244.505-.73.505h-.27v.399h.265c.277 0 .48.038.61.114.129.077.194.197.194.36 0 .183-.059.319-.176.406-.117.088-.293.132-.53.132a1.955 1.955 0 0 1-.829-.2v.436c.233.11.518.165.856.165zm1.992.019c.1 0 .177-.03.23-.087a.332.332 0 0 0 .08-.235.324.324 0 0 0-.079-.23c-.052-.057-.13-.085-.231-.085-.1 0-.177.027-.23.081-.053.055-.08.132-.08.234 0 .1.027.179.08.236.053.057.13.086.23.086zm2.845-.061v-.432h-1.449v-.021l.53-.513a5.2 5.2 0 0 0 .51-.534c.103-.131.179-.259.228-.383a1.05 1.05 0 0 0 .074-.392.75.75 0 0 0-.256-.598c-.172-.149-.4-.223-.683-.223-.18 0-.351.03-.511.09a1.71 1.71 0 0 0-.495.305l.265.323c.143-.112.27-.19.379-.233a.916.916 0 0 1 .34-.065c.145 0 .26.04.342.119a.43.43 0 0 1 .125.326c0 .1-.018.194-.053.281-.034.088-.09.182-.165.281-.076.1-.23.268-.463.506l-.787.791v.372h2.069zM356.239 111.542c.383 0 .678-.08.885-.24.207-.159.311-.385.311-.679a.654.654 0 0 0-.184-.485c-.122-.122-.306-.198-.55-.229v-.016a.85.85 0 0 0 .475-.26.707.707 0 0 0 .17-.483.65.65 0 0 0-.26-.547c-.172-.133-.412-.199-.72-.199a1.6 1.6 0 0 0-.975.31l.24.342c.147-.095.273-.159.38-.191.108-.033.219-.05.334-.05.166 0 .291.036.376.107a.372.372 0 0 1 .127.303c0 .336-.243.505-.73.505h-.27v.399h.266c.277 0 .48.038.61.114.129.077.193.197.193.36 0 .183-.058.319-.175.406-.117.088-.294.132-.53.132a1.955 1.955 0 0 1-.829-.2v.436c.233.11.518.165.856.165zm1.991.019c.1 0 .177-.03.231-.087a.332.332 0 0 0 .08-.235.324.324 0 0 0-.079-.23c-.053-.057-.13-.085-.232-.085-.1 0-.176.027-.23.081-.052.055-.079.132-.079.234 0 .1.027.179.08.236.053.057.13.086.23.086zm2.845-.061v-.432h-1.448v-.021l.53-.513a5.2 5.2 0 0 0 .51-.534c.103-.131.179-.259.228-.383a1.05 1.05 0 0 0 .074-.392.75.75 0 0 0-.257-.598c-.17-.149-.398-.223-.682-.223-.181 0-.352.03-.512.09a1.71 1.71 0 0 0-.494.305l.265.323c.143-.112.27-.19.379-.233a.916.916 0 0 1 .339-.065c.146 0 .26.04.343.119a.43.43 0 0 1 .124.326c0 .1-.017.194-.052.281-.035.088-.09.182-.166.281-.076.1-.23.268-.462.506l-.787.791v.372h2.068zM316.734 111.5v-.432h-1.449v-.021l.53-.513a5.2 5.2 0 0 0 .51-.534c.103-.131.179-.259.228-.383a1.05 1.05 0 0 0 .074-.392.75.75 0 0 0-.257-.598c-.17-.149-.398-.223-.682-.223-.181 0-.352.03-.512.09a1.71 1.71 0 0 0-.494.305l.265.323c.143-.112.27-.19.379-.233a.916.916 0 0 1 .339-.065c.146 0 .26.04.343.119a.43.43 0 0 1 .124.326c0 .1-.017.194-.052.281-.035.088-.09.182-.166.281-.076.1-.23.268-.462.506l-.787.791v.372h2.069zm.77.06c.1 0 .177-.028.23-.086a.332.332 0 0 0 .08-.235.324.324 0 0 0-.078-.23c-.053-.057-.13-.085-.232-.085-.1 0-.177.027-.23.081-.053.055-.08.132-.08.234 0 .1.027.179.08.236.053.057.13.086.23.086zm1.816-.018c.316 0 .566-.076.751-.228a.743.743 0 0 0 .278-.605c0-.163-.05-.31-.151-.443-.101-.132-.271-.258-.51-.377.375-.186.563-.435.563-.748 0-.222-.084-.4-.253-.533-.168-.133-.397-.2-.686-.2-.28 0-.507.066-.68.198a.63.63 0 0 0-.262.529c0 .154.04.294.12.417.078.124.211.242.398.353-.217.106-.373.227-.469.362a.778.778 0 0 0-.143.459c0 .26.091.46.274.603.182.142.439.213.77.213zm0-1.854a1.604 1.604 0 0 1-.297-.168.506.506 0 0 1-.133-.155.404.404 0 0 1-.046-.195c0-.118.042-.211.127-.28a.517.517 0 0 1 .336-.104c.142 0 .256.035.342.104a.341.341 0 0 1 .128.28.428.428 0 0 1-.103.285.984.984 0 0 1-.354.233zm-.008 1.478a.65.65 0 0 1-.414-.12.405.405 0 0 1-.152-.337c0-.125.04-.236.12-.333.082-.097.214-.185.398-.266l.06.027a1.3 1.3 0 0 1 .418.259.432.432 0 0 1 .137.309c0 .142-.05.254-.149.337-.1.083-.239.124-.418.124zM343.33 111.542c.383 0 .678-.08.885-.24.208-.159.311-.385.311-.679a.654.654 0 0 0-.183-.485c-.123-.122-.307-.198-.552-.229v-.016a.85.85 0 0 0 .476-.26.707.707 0 0 0 .17-.483.65.65 0 0 0-.26-.547c-.172-.133-.412-.199-.72-.199a1.6 1.6 0 0 0-.974.31l.24.342c.146-.095.272-.159.38-.191.107-.033.218-.05.334-.05.165 0 .29.036.375.107a.372.372 0 0 1 .128.303c0 .336-.244.505-.73.505h-.27v.399h.265c.277 0 .48.038.61.114.129.077.194.197.194.36 0 .183-.059.319-.176.406-.117.088-.293.132-.53.132a1.955 1.955 0 0 1-.829-.2v.436c.233.11.518.165.856.165zm1.992.019c.1 0 .177-.03.23-.087a.332.332 0 0 0 .08-.235.324.324 0 0 0-.079-.23c-.053-.057-.13-.085-.231-.085-.1 0-.177.027-.23.081-.053.055-.08.132-.08.234 0 .1.027.179.08.236.053.057.13.086.23.086zm1.383-.02c.488 0 .852-.147 1.094-.444.242-.296.363-.745.363-1.346 0-.281-.043-.522-.131-.724a1.02 1.02 0 0 0-.374-.46 1.012 1.012 0 0 0-.567-.158c-.31 0-.553.094-.732.282-.179.189-.268.443-.268.761 0 .294.077.525.231.693.155.169.367.253.637.253a.935.935 0 0 0 .408-.084.74.74 0 0 0 .298-.271h.025c-.016.381-.105.661-.268.84-.162.177-.41.266-.74.266-.126 0-.25-.017-.374-.052v.411c.08.023.213.034.398.034zm.376-1.533c-.171 0-.299-.05-.383-.15-.084-.1-.126-.236-.126-.41 0-.2.045-.356.136-.466.09-.111.22-.166.39-.166.111 0 .21.03.296.094a.619.619 0 0 1 .202.255.845.845 0 0 1 .072.348.449.449 0 0 1-.17.346.61.61 0 0 1-.417.149zM370.16 111.542c.376 0 .666-.092.87-.275.204-.183.306-.437.306-.763 0-.28-.09-.503-.27-.666-.18-.162-.423-.244-.73-.244-.102 0-.188.006-.258.017-.07.011-.13.02-.179.03l.07-.757h1.154v-.436h-1.587l-.117 1.49.22.13a2.889 2.889 0 0 1 .494-.065c.465 0 .697.183.697.547 0 .19-.057.336-.173.434-.115.1-.284.149-.505.149a1.765 1.765 0 0 1-.795-.2v.444c.194.11.462.165.803.165zm1.98.019c.1 0 .176-.03.23-.087a.332.332 0 0 0 .08-.235.324.324 0 0 0-.08-.23c-.052-.057-.13-.085-.23-.085-.101 0-.178.027-.23.081-.053.055-.08.132-.08.234 0 .1.027.179.08.236.052.057.129.086.23.086zm2.542-.061v-.666h.41v-.407h-.41v-1.987h-.478l-1.395 2.016v.378h1.395v.666h.478zm-.478-1.073h-.938l.758-1.102c.084-.13.145-.242.184-.334h.016c-.013.174-.02.397-.02.67v.766z" fill="#C5C5C5" fill-rule="nonzero"/><path fill="#73E6E3" d="M299.528 79.052h9.059v24.335h-9.06z"/><path fill="#A8ABE0" d="M326.704 62.828h9.059v40.558h-9.06z"/><path fill="#FEC6F9" d="M353.88 64.631h9.06v38.755h-9.06z"/><path fill="#C7EEFF" d="M313.116 67.335h9.059v36.052h-9.06z"/><path fill="#FFDD8C" d="M340.293 60.124h9.059v43.262h-9.06z"/><path fill="#C2FFFD" d="M367.469 43h9.059v60.386h-9.06z"/></g><path d="M156.434 40l2.85-8.138h-1.38l-1.698 5.038c-.063.178-.145.452-.245.823-.1.371-.174.698-.223.98a9.747 9.747 0 0 0-.194-.849c-.1-.38-.195-.691-.284-.932l-1.698-5.06h-1.37l2.84 8.138h1.402zm5.255 0v-8.138h-1.33V40h1.33zm3.479 0v-3.045h.846c1.028 0 1.82-.226 2.377-.679.557-.453.835-1.104.835-1.954 0-.809-.253-1.421-.76-1.837-.506-.415-1.268-.623-2.285-.623h-2.343V40h1.33zm.707-4.164h-.707v-2.86h.924c.605 0 1.05.114 1.336.344.286.23.429.58.429 1.047 0 .504-.16.876-.48 1.113-.318.238-.82.356-1.502.356zM174.14 40l.796-2.26h3.112l.812 2.26h1.414l-3.045-8.171h-1.447L172.738 40h1.403zm3.557-3.407h-2.371l.734-2.12c.193-.542.34-1.041.44-1.498.037.149.105.382.203.702.099.319.176.552.231.7l.763 2.216zm6.952 3.518c.81 0 1.533-.12 2.171-.361v-1.142a11.63 11.63 0 0 1-1.007.265 4.805 4.805 0 0 1-1.002.103c-.798 0-1.408-.256-1.829-.768-.42-.512-.632-1.268-.632-2.266 0-.954.22-1.701.657-2.243.438-.542 1.04-.813 1.804-.813.338 0 .66.05.966.148.306.098.596.212.87.342l.48-1.108a5.125 5.125 0 0 0-2.305-.523c-.79 0-1.479.169-2.065.507a3.317 3.317 0 0 0-1.344 1.458c-.31.635-.465 1.375-.465 2.221 0 1.343.319 2.376.957 3.098.638.721 1.553 1.082 2.744 1.082zm7.226 0c.809 0 1.532-.12 2.17-.361v-1.142a11.63 11.63 0 0 1-1.007.265 4.805 4.805 0 0 1-1.002.103c-.798 0-1.407-.256-1.829-.768-.42-.512-.631-1.268-.631-2.266 0-.954.219-1.701.656-2.243.438-.542 1.04-.813 1.804-.813.338 0 .66.05.966.148.306.098.596.212.87.342l.48-1.108a5.125 5.125 0 0 0-2.305-.523c-.79 0-1.479.169-2.065.507a3.317 3.317 0 0 0-1.344 1.458c-.31.635-.465 1.375-.465 2.221 0 1.343.32 2.376.957 3.098.639.721 1.553 1.082 2.745 1.082zm7.342 0c1.213 0 2.151-.367 2.813-1.102.663-.735.994-1.764.994-3.09 0-1.328-.33-2.357-.99-3.089-.661-.73-1.596-1.096-2.806-1.096-1.229 0-2.174.36-2.836 1.08-.663.72-.994 1.751-.994 3.095 0 1.343.33 2.38.988 3.109.659.729 1.602 1.093 2.83 1.093zm0-1.135c-.794 0-1.394-.26-1.798-.777-.405-.517-.607-1.277-.607-2.28 0-.997.203-1.754.61-2.27.406-.516 1.008-.774 1.806-.774.79 0 1.385.258 1.784.774s.598 1.273.598 2.27c0 1.014-.201 1.777-.604 2.289-.402.512-.999.768-1.79.768zm8.678 1.135c.679 0 1.262-.121 1.75-.364s.861-.59 1.12-1.041c.257-.451.386-.977.386-1.578v-5.266h-1.33V37c0 1.317-.627 1.976-1.882 1.976-.645 0-1.124-.16-1.436-.479-.312-.32-.467-.814-.467-1.486v-5.15H204.7v5.244c0 .936.28 1.67.84 2.205.56.534 1.345.801 2.355.801zm6.546-.111v-4.23c0-.572-.026-1.203-.078-1.893l-.028-.362h.045L218.383 40h1.63v-8.138h-1.218v4.264c0 .3.01.719.033 1.255.022.536.037.847.045.932h-.034l-3.99-6.451h-1.615V40h1.208zm10.531 0v-6.997h2.394v-1.141h-6.117v1.141h2.393V40h1.33zm5.383.111c.92 0 1.642-.206 2.165-.618.524-.411.785-.98.785-1.703 0-.367-.065-.686-.194-.957a2.047 2.047 0 0 0-.613-.73c-.278-.215-.716-.447-1.313-.695-.531-.22-.898-.395-1.103-.53a1.365 1.365 0 0 1-.44-.425 1.046 1.046 0 0 1-.133-.543c0-.308.111-.555.334-.743.223-.187.55-.28.98-.28.568 0 1.213.151 1.937.456l.423-1.086a5.708 5.708 0 0 0-2.327-.512c-.813 0-1.46.195-1.943.584-.482.39-.723.925-.723 1.604 0 .541.152 1.005.456 1.391.305.386.828.73 1.57 1.03.72.29 1.195.54 1.425.751.23.212.345.47.345.774a.98.98 0 0 1-.376.807c-.25.2-.639.3-1.166.3-.36 0-.748-.05-1.166-.15a6.143 6.143 0 0 1-1.183-.411v1.258c.587.285 1.34.428 2.26.428z" fill="#333" fill-rule="nonzero"/><path d="M252 17H135.354a3 3 0 0 0-3 2.991l-.348 122a3 3 0 0 0 2.815 3.003l.185.006H252a3 3 0 0 0 3-3V20a3 3 0 0 0-3-3zm-116.646 2H252a1 1 0 0 1 1 1v122a1 1 0 0 1-1 1H135.003a1 1 0 0 1-.997-1.003l.348-122a1 1 0 0 1 1-.997z" fill="#ECECEC" fill-rule="nonzero"/><g><text font-family="OpenSans-Semibold, Open Sans" font-size="4.75" font-weight="500" fill="#C5C5C5" transform="translate(328.35 183.55)"><tspan x="15.161" y="29.7">3.9</tspan></text><text font-family="OpenSans-Semibold, Open Sans" font-size="4.75" font-weight="500" fill="#C5C5C5" transform="translate(328.35 183.55)"><tspan x="1.861" y="29.7">3.9</tspan></text><path d="M328.35 189.25h9.5v15.2h-9.5z" fill="#F1F1F1"/></g><g><text font-family="OpenSans-Semibold, Open Sans" font-size="4.75" font-weight="500" fill="#C5C5C5" transform="translate(252.35 193.05)"><tspan x="43.661" y="20.2">5.4</tspan></text><path d="M304.6 193.05h-9.5v11.4h9.5z" fill="#F1F1F1"/></g><g transform="translate(149 52)"><path d="M38.98 40.55v-8.816H37.8l-2.593 2.038.711.898c.768-.623 1.22-.993 1.354-1.11.135-.116.248-.222.34-.319-.031.398-.047.937-.047 1.616v5.693h1.417zm5.374.12c1.085 0 1.922-.264 2.511-.792.59-.529.884-1.264.884-2.204 0-.813-.26-1.454-.778-1.924-.519-.47-1.222-.706-2.11-.706-.294 0-.543.016-.746.049-.203.032-.374.06-.515.084l.199-2.183h3.335v-1.26H42.55l-.338 4.305.633.374c.21-.048.452-.091.73-.13.277-.038.51-.057.7-.057 1.342 0 2.013.527 2.013 1.58 0 .551-.167.97-.5 1.255-.334.285-.82.428-1.46.428-.361 0-.753-.05-1.175-.151a4.257 4.257 0 0 1-1.122-.428v1.284c.563.318 1.337.477 2.322.477zm6.494-.12v-4.288c0-.956-.034-1.981-.102-3.075h.048l2.557 7.363h1.272l2.647-7.35h.049c-.016.148-.035.574-.058 1.278a56.858 56.858 0 0 0-.033 1.712v4.36h1.387v-8.816h-2.038l-2.52 7.013h-.037l-2.448-7.013H49.54v8.816h1.308z" fill="#C5C5C5" fill-rule="nonzero"/><circle fill="#A8ABE0" cx="46.55" cy="11.4" r="11.4"/><circle fill="#FEC6F9" cx="46.55" cy="65.55" r="15.2"/><circle fill="#C7EEFF" cx="15.2" cy="38.95" r="15.2"/><path d="M39.043 68.883c.765 0 1.355-.159 1.77-.478.415-.318.622-.771.622-1.358 0-.404-.123-.728-.367-.971-.245-.244-.613-.396-1.103-.457v-.034c.41-.089.727-.262.952-.52.226-.257.338-.579.338-.966 0-.465-.172-.83-.517-1.094-.345-.264-.825-.396-1.44-.396-.74 0-1.39.206-1.95.618l.48.684c.292-.189.545-.316.76-.382.214-.065.437-.098.668-.098.33 0 .581.071.751.213.17.142.255.344.255.605 0 .674-.487 1.01-1.461 1.01h-.539v.798h.53c.554 0 .96.077 1.22.23.258.153.388.392.388.718 0 .367-.117.639-.351.814-.234.175-.587.263-1.06.263a3.91 3.91 0 0 1-1.657-.4v.872c.464.22 1.034.33 1.71.33zm6.717-.083v-1.332h.822v-.814h-.822V62.68h-.956l-2.789 4.033v.755h2.789V68.8h.956zm-.956-2.146H42.93l1.515-2.204c.167-.262.29-.484.367-.668h.034c-.028.348-.042.794-.042 1.34v1.532zm4.025 2.23c.751 0 1.33-.183 1.738-.55.408-.365.612-.874.612-1.525 0-.563-.18-1.007-.539-1.332-.359-.326-.846-.489-1.46-.489-.204 0-.376.012-.516.034l-.357.058.137-1.511h2.31v-.873H47.58l-.234 2.981.439.26c.145-.034.313-.064.505-.09.192-.027.353-.04.484-.04.93 0 1.395.364 1.395 1.093 0 .382-.116.671-.347.869-.23.197-.568.296-1.01.296a3.53 3.53 0 0 1-.814-.104 2.947 2.947 0 0 1-.777-.297v.89c.39.22.926.33 1.608.33zm4.588-.084v-2.284l.588-.48 1.917 2.764h1.156l-2.355-3.428c.462-.531 1.226-1.423 2.292-2.676H55.88l-1.65 1.95c-.27.309-.54.63-.813.964v-2.914h-.998V68.8h.998zM7.21 41.333c.618 0 1.106-.185 1.464-.557.357-.371.536-.877.536-1.517 0-.582-.154-1.043-.463-1.382-.31-.34-.74-.51-1.295-.51-.32 0-.598.062-.834.186-.237.124-.42.299-.552.524h-.05c.028-.774.206-1.336.535-1.686.328-.351.82-.526 1.473-.526.279 0 .524.03.735.091v-.818a3.62 3.62 0 0 0-.776-.07c-1.946 0-2.918 1.193-2.918 3.581 0 .565.086 1.049.26 1.45.174.403.423.71.746.92.322.21.702.314 1.14.314zm-.016-.81a.997.997 0 0 1-.817-.402c-.212-.269-.319-.6-.319-.992a.87.87 0 0 1 .155-.482c.103-.157.243-.281.421-.372.178-.09.373-.135.585-.135.342 0 .599.1.77.3.171.2.257.476.257.827 0 .404-.091.714-.274.93-.182.218-.442.327-.778.327zm3.949.81c.974 0 1.703-.296 2.188-.889.484-.593.726-1.49.726-2.692 0-.563-.088-1.045-.263-1.447-.175-.402-.424-.71-.747-.92a2.025 2.025 0 0 0-1.136-.318c-.618 0-1.105.189-1.463.566-.358.377-.537.884-.537 1.522 0 .587.155 1.049.464 1.386.309.336.733.505 1.273.505.312 0 .584-.056.816-.167.233-.112.431-.293.595-.543h.05c-.03.763-.208 1.322-.534 1.678-.326.357-.82.535-1.482.535-.25 0-.5-.035-.747-.105v.823c.161.044.427.066.797.066zm.751-3.068c-.342 0-.597-.1-.766-.298-.168-.2-.252-.473-.252-.82 0-.402.09-.713.271-.934.181-.221.441-.332.78-.332.224 0 .421.063.594.188.172.125.307.296.403.511.096.216.144.448.144.696 0 .264-.113.495-.339.693a1.221 1.221 0 0 1-.835.296zm4.994 3.068c.631 0 1.132-.151 1.502-.455.37-.303.556-.706.556-1.21 0-.326-.101-.62-.303-.885-.202-.265-.542-.517-1.02-.756.75-.37 1.127-.868 1.127-1.495 0-.445-.169-.8-.506-1.066-.336-.266-.794-.399-1.373-.399-.56 0-1.013.132-1.361.395a1.26 1.26 0 0 0-.522 1.058c0 .309.08.587.238.835.159.248.424.483.797.705-.434.212-.746.453-.937.725-.19.271-.286.577-.286.916 0 .52.182.923.547 1.207.365.284.878.425 1.54.425zm0-3.707a3.207 3.207 0 0 1-.593-.336 1.013 1.013 0 0 1-.267-.31.808.808 0 0 1-.092-.39c0-.236.085-.423.254-.56.17-.138.394-.207.672-.207.284 0 .512.069.683.206a.682.682 0 0 1 .257.562.855.855 0 0 1-.207.57c-.138.163-.373.318-.707.465zm-.017 2.956c-.348 0-.624-.08-.827-.24-.203-.16-.305-.385-.305-.674 0-.25.081-.473.243-.666.161-.194.425-.371.793-.532l.12.054c.374.158.652.331.836.518.184.186.275.392.275.617 0 .284-.1.509-.298.675-.2.165-.478.248-.837.248zm4.246.668v-2.284l.588-.48 1.917 2.764h1.156l-2.355-3.428c.462-.531 1.226-1.423 2.292-2.676H23.58l-1.65 1.95c-.27.309-.54.63-.813.964v-2.914h-.998v6.104h.998zM43.925 14.7v-.864h-2.897v-.042l1.06-1.027c.476-.448.816-.804 1.021-1.067a3.19 3.19 0 0 0 .455-.766c.099-.247.148-.509.148-.785 0-.5-.17-.9-.513-1.196-.343-.296-.798-.444-1.365-.444-.362 0-.703.06-1.023.18-.32.119-.65.322-.99.609l.53.647c.287-.226.54-.381.758-.468.219-.086.445-.13.679-.13.292 0 .52.08.686.239.166.159.249.376.249.651 0 .2-.035.388-.105.564-.07.175-.18.362-.331.561-.152.2-.46.537-.925 1.013l-1.574 1.582v.743h4.137zm2.438.083c.766 0 1.356-.159 1.77-.478.415-.318.622-.771.622-1.358 0-.404-.122-.728-.367-.971-.245-.244-.612-.396-1.102-.457v-.034c.41-.089.726-.262.952-.52.225-.257.338-.579.338-.966 0-.465-.173-.83-.518-1.094-.345-.264-.825-.396-1.44-.396-.74 0-1.39.206-1.95.618l.48.684c.293-.189.546-.316.76-.382.215-.065.437-.098.668-.098.331 0 .582.071.752.213.17.142.254.344.254.605 0 .674-.487 1.01-1.46 1.01h-.54v.798h.53c.555 0 .961.077 1.22.23.259.153.388.392.388.718 0 .367-.117.639-.35.814-.234.175-.588.263-1.061.263a3.91 3.91 0 0 1-1.657-.4v.872c.464.22 1.035.33 1.711.33zm4.613-.083v-2.284l.59-.48L53.48 14.7h1.157l-2.355-3.428c.462-.531 1.226-1.423 2.292-2.676H53.44l-1.65 1.95c-.27.309-.54.63-.814.964V8.596h-.997V14.7h.997z" fill="#FFF" fill-rule="nonzero"/><circle fill="#73E6E3" cx="76" cy="39.9" r="11.4"/><path d="M70.991 42.25l2.4-5.41v-.685h-4.22v.864h3.173l-2.413 5.231h1.06zm5.206.083c.632 0 1.133-.151 1.503-.455.37-.303.556-.706.556-1.21 0-.326-.101-.62-.303-.885-.202-.265-.542-.517-1.02-.756.75-.37 1.126-.868 1.126-1.495 0-.445-.168-.8-.505-1.066-.337-.266-.794-.399-1.373-.399-.56 0-1.013.132-1.361.395a1.26 1.26 0 0 0-.522 1.058c0 .309.08.587.238.835.158.248.424.483.797.705-.434.212-.746.453-.937.725-.19.271-.286.577-.286.916 0 .52.182.923.547 1.207.364.284.878.425 1.54.425zm0-3.707a3.207 3.207 0 0 1-.592-.336 1.013 1.013 0 0 1-.268-.31.808.808 0 0 1-.091-.39c0-.236.084-.423.254-.56.17-.138.394-.207.672-.207.284 0 .512.069.683.206a.682.682 0 0 1 .257.562.855.855 0 0 1-.207.57c-.138.163-.374.318-.708.465zm-.016 2.956c-.348 0-.624-.08-.827-.24-.203-.16-.305-.385-.305-.674 0-.25.081-.473.242-.666.162-.194.426-.371.794-.532l.12.054c.374.158.652.331.836.518.183.186.275.392.275.617 0 .284-.1.509-.298.675-.2.165-.478.248-.837.248zm4.245.668v-2.284l.59-.48 1.915 2.764h1.157l-2.355-3.428c.462-.531 1.226-1.423 2.292-2.676H82.89l-1.65 1.95c-.27.309-.54.63-.814.964v-2.914h-.997v6.104h.997z" fill="#FFF" fill-rule="nonzero"/></g><g transform="translate(-29 178)"><g transform="matrix(-1 0 0 1 244 0)"><mask id="b" fill="#fff"><use xlink:href="#a"/></mask><g mask="url(#b)"><path fill="#CECECE" d="M-31.876 190.405l3.17 12.672 18.94 1.729 9.514-6.183 3.39-.335V187.31l-20.706 5.275z"/><path stroke="#333" stroke-width="4.125" stroke-linecap="round" stroke-linejoin="round" d="M49.878 181.471l-23.575-1.82-3.163-13.963"/></g></g><path d="M332.257 97.63l-7.896 2.868 1.38 3.349c-18.934.557-34.498 3.91-34.241 20.38v16.578h20.378v26.981l70.098-3.577.055-26.975 28.027-4.773c-.172.565-2.18-3.097-6.024-10.984-5.766-11.83-15.288-16.083-33.673-18.432l.867-2.948-7.678-3.556-2.293 3.957c-1.371 8.609-7.317 11.664-13.459 14.48-10.797-4.6-15.957-10.387-15.541-17.347z" fill="#E5F7FF"/><g transform="rotate(8 147.295 2316.821)"><path fill="#FFF" d="M58.226 59.253l4.762-16.968-7.22-18.008-4.854-5.377-36.058-.333-9.71 25.952 3.271 11.86 14.508 19.605 29.127-4.697z"/><path d="M63.435 46.812c-2.58 14.162-14.196 39.718-29.27 39.375C19.092 85.845 6.621 59.97 4.1 45.464" stroke="#333" stroke-width="3"/><path d="M60.7 58.344c3.093 0 5.6-2.82 5.6-6.3 0-2.461-1.254-4.593-3.084-5.63L60.7 58.344z" stroke="#333" stroke-width="3"/><path d="M3.896 45.11l1.784-1.012L9 59.844H7.151c-3.963 0-7.1-3.529-7.1-7.8 0-2.935 1.49-5.6 3.845-6.935zm-.163 4.288l-.096.176a5.402 5.402 0 0 0-.586 2.47l.005.23c.066 1.667.858 3.09 1.993 3.887l.128.085-1.444-6.848z" fill="#333" fill-rule="nonzero"/><circle fill="#333" cx="20.6" cy="43.444" r="3.5"/><circle fill="#333" cx="46.3" cy="43.444" r="3.5"/><path d="M28.5 71.065c4.08 3.052 7.597 2.251 10.9 0" stroke="#333" stroke-width="3" stroke-linecap="square"/><path d="M63.513 46.542C53.7 19.381 51.486 18.928 46.707 19.016c-4.778.088-20.657 5.506-31.3.592C13.054 33.33 10.44 40.085 4.08 45.705c-3.438-5.534-3.438-15.572 0-30.113.637-3.187.704-5.557.2-7.111l3.159-.257c-.083-1.448.491-3.008 1.723-4.68 1.325 2.771 3.263 3.447 5.813 2.026 2.73-1.52 8.359-2.858 16.887-4.014 32.772-1.398 32.67 23.56 31.65 44.986z" fill="#DDD"/><path d="M31.798.058L31.66.07l-1.143.158-1.109.161-1.074.163-1.04.166-1.004.167-.97.17-.936.174-.9.175-.867.178-.833.18c-.136.03-.27.061-.403.092l-.781.184c-.255.062-.504.125-.747.188l-.713.19-.68.193-.644.196c-1.361.427-2.484.875-3.37 1.346l-.201.109c-1.778.99-2.77.644-3.73-1.362L9.437.643 7.955 2.655l-.219.304c-.85 1.217-1.409 2.416-1.657 3.596l-.053.28-3.758.305.585 1.804c.407 1.256.347 3.397-.244 6.354l-.31 1.338-.29 1.312-.27 1.289c-.044.212-.086.424-.128.635l-.242 1.251C-.833 32.895-.396 41.341 2.806 46.497l.937 1.508 1.33-1.176.28-.249c5.137-4.638 7.95-10 10.149-19.662l.242-1.091.12-.56.235-1.146.231-1.185.232-1.245.035.013c2.966 1.038 6.347 1.49 10.132 1.46 3.505-.028 7.029-.439 11.416-1.215l1.48-.27 4.024-.756.83-.144.489-.077.44-.064.393-.05.35-.038c.055-.005.109-.01.16-.013l.292-.018.538-.009.387.002.239.011c.316.022.624.072.927.157l.227.07c.188.065.374.144.56.24l.223.121.111.068.223.147.111.08.223.174c.186.152.373.324.562.517l.227.242.23.263c.115.137.23.282.348.435l.236.319.239.342.12.18.245.379.249.404.253.43.257.457.263.484.268.513.275.541.139.282.283.586.29.616.45.984.465 1.057.32.746.329.78.51 1.237.351.869.732 1.849.576 1.486.806 2.12.635 1.695.889 2.407 1.183 3.252 2.552 7.063.39-8.215.061-1.398.053-1.359.064-1.969.032-1.267.023-1.234.014-1.2.005-1.167-.005-1.135-.015-1.106-.025-1.076-.036-1.048-.046-1.021-.057-.995-.069-.97a67.59 67.59 0 0 0-.039-.477l-.086-.935-.098-.912-.11-.892c-.544-4.112-1.497-7.57-2.983-10.866C57.077 4.563 47.503-.612 31.797.058zm27.34 16.376c1.48 3.386 2.367 7.05 2.808 11.615l.088.992.074 1.021c.057.863.1 1.758.13 2.688l.03 1.133.011.58.013 1.186.002.607-.005 1.243-.017 1.333-.789-2.073-.564-1.454-.546-1.382-.354-.883-.347-.851-.34-.822-.66-1.553-.479-1.09-.312-.691-.307-.664-.45-.945-.295-.598-.29-.571-.287-.547-.282-.521-.28-.498-.138-.24-.274-.462-.137-.222-.27-.428-.269-.406-.266-.384a18.636 18.636 0 0 0-.133-.184l-.264-.352a15.742 15.742 0 0 0-.132-.17l-.262-.321-.262-.303a11.778 11.778 0 0 0-.262-.283l-.261-.265a9.755 9.755 0 0 0-.262-.246l-.262-.229a8.454 8.454 0 0 0-.13-.108l-.264-.203a7.146 7.146 0 0 0-.799-.514l-.27-.141a6.489 6.489 0 0 0-.547-.24l-.279-.1a6.657 6.657 0 0 0-.281-.086l-.286-.074a7.108 7.108 0 0 0-.144-.033l-.291-.057a7.741 7.741 0 0 0-.147-.024l-.298-.04-.303-.03a9.43 9.43 0 0 0-.153-.012l-.311-.015a10.946 10.946 0 0 0-.157-.005l-.446-.002-.45.006-.377.015c-.066.003-.133.008-.202.013l-.43.04-.474.055c-.083.01-.168.022-.255.034l-.549.081-.605.1-.935.165-4.506.845c-4.58.835-8.15 1.272-11.642 1.3-4.175.034-7.741-.567-10.668-1.918l-1.777-.82-.436 2.537-.216 1.208-.217 1.167-.11.57-.221 1.109-.112.54-.226 1.055-.23 1.018c-1.818 7.838-4.033 12.489-7.695 16.313l-.297.303-.058-.14c-1.681-4.12-1.902-10.342-.604-18.63l.187-1.143c.097-.578.202-1.166.315-1.763l.233-1.207.253-1.233.271-1.258.29-1.283.153-.652.087-.447c.417-2.213.57-4.058.442-5.57l-.008-.08 2.96-.24-.084-1.461-.006-.201c.002-.474.103-.98.31-1.52l.029-.074.131.13c1.61 1.53 3.716 1.75 6.052.542l.423-.228c.412-.218.896-.433 1.452-.645l.493-.181.529-.18.563-.179.599-.177c.102-.03.207-.059.312-.088l.65-.175.686-.173.72-.172.754-.17.39-.085.806-.168.84-.166.875-.164.91-.163.943-.16.977-.159 1.011-.157 1.581-.231 1.028-.144-.07.004c14.541-.62 22.95 3.926 27.067 13.052l.145.327z" fill="#333" fill-rule="nonzero"/><path d="M37.201 45.275l-2.57-1.549-.727 1.221-.456.781-.431.755-.409.729-.384.702-.361.677c-.059.111-.116.22-.172.33l-.326.638-.302.614c-.096.2-.19.397-.278.589l-.255.564-.119.273-.22.528c-.104.258-.199.507-.285.747l-.161.468c-.324.989-.483 1.812-.477 2.48.024 2.882 2.254 3.674 5.725 2.88l.48-.119.496-.137.51-.157-.917-2.856c-1.426.458-2.47.626-3.062.552l-.163-.026-.07-.01a.012.012 0 0 1-.006-.008l.006-.085.001-.059a3.68 3.68 0 0 1 .133-.896l.089-.322.111-.351c.04-.122.086-.249.134-.38l.156-.408.18-.437.201-.464.224-.492.247-.519.269-.546.29-.574.315-.6.336-.626.546-.989.392-.691.63-1.085.448-.755.232-.387z" fill="#333" fill-rule="nonzero"/><path d="M7.974 55.664l14.378 13.4 3.29-5.72h17.575l2.647 4.72 14.26-12.791c-.642 14.029-6.847 40.836-26.116 40.946-19.268.11-25.628-28.35-26.034-40.555z" fill="#DDD"/><path d="M59.122 54.156L46.256 65.697l-1.73-3.086a1.5 1.5 0 0 0-1.309-.767H25.642l-.145.007a1.5 1.5 0 0 0-1.156.746l-2.348 4.082L8.997 54.567c-.977-.91-2.566-.187-2.522 1.147.256 7.712 2.431 17.7 6.085 25.483 4.896 10.431 12.054 16.576 21.457 16.522 9.433-.054 16.559-5.985 21.388-16.108 3.674-7.702 5.82-17.602 6.217-26.27.06-1.329-1.51-2.073-2.5-1.185zM46.866 69.181l11.488-10.306-.016.171c-.75 7.284-2.683 15.073-5.64 21.273C48.315 89.504 42.105 94.673 34 94.72c-8.029.046-14.274-5.315-18.724-14.796l-.322-.7c-2.643-5.88-4.434-13.016-5.152-19.28l-.064-.585L21.33 70.162l.109.093a1.5 1.5 0 0 0 2.214-.442l2.856-4.969h15.829l2.218 3.955a1.5 1.5 0 0 0 2.31.382z" fill="#333" fill-rule="nonzero"/><path d="M28.198 68.965l1.2.899c3.067 2.293 5.723 2.21 8.899.134l.259-.173 1.24-.844 1.689 2.479-1.24.844c-4.191 2.857-8.21 3.136-12.371.16l-.272-.198-1.201-.898 1.797-2.403z" fill="#333" fill-rule="nonzero"/></g><path d="M362.085 95.656l9.937 4.132-11.992 19.497-18.867-3.331 6.248-1.79c5.958-1.706 9.658-6.238 13.331-15.108l.394-.967.197-.496.752-1.937zm5.541 5.552l-3.865-1.607-.042.104c-3.047 7.487-6.19 12.341-10.602 15.17l-.179.11 5.606.99 9.082-14.767z" fill="#333" fill-rule="nonzero"/><path d="M332.754 97.714l.132-2.386-10.723 4.46 11.992 19.497 16.56-2.924-3.61-2.058c-9.928-5.657-14.647-11.229-14.35-16.59zm-2.9 2.124l.023.164c.776 5.079 4.852 9.942 12.048 14.656l.252.164-6.536 1.154-9.082-14.768 3.295-1.37z" fill="#333" fill-rule="nonzero"/><path fill="#333" fill-rule="nonzero" d="M346.016 115.844l3 .001-.016 40.506-3-.002zM325.79 101.365l.42 2.97-17.794 2.52-.7.229-1.184.397-.754.262-.725.26-.699.26-.34.13-.658.26-.632.26-.307.13-.594.262-.57.264c-4.641 2.21-6.73 4.674-7.447 8.827l-.08.507-.066.523c-.03.266-.056.539-.077.818l-.037.568-.014.29-.02.596-.01.616-.002 41.082h-3v-40.771c0-.235.002-.466.006-.694l.018-.675.03-.655c.367-6.57 2.681-10.252 8.49-13.263l.583-.294.605-.29c.206-.096.416-.192.63-.287l.651-.284.335-.14.689-.281.353-.14.724-.278.75-.276.775-.277.8-.276.826-.277.974-.316 18.05-2.557zM368.517 102.623a1.5 1.5 0 0 1 1.566-1.27l.144.014 16.695 2.557c.194.03.377.096.54.193l.025.016.133.054c.407.16.704.286 1.097.472 1.218.575 2.533 1.368 3.995 2.474 4.033 3.05 8.368 7.86 12.938 14.887l.688 1.07.842 1.329.78 1.25.486.792.681 1.13.215.362.411.703.388.677.366.653.344.63.322.608.303.588.284.57.265.555.248.54.23.526.11.259.208.51.192.5.179.494c.029.082.057.163.084.245l.16.485.148.483.136.48.065.24c.069.264.134.525.194.788l.117.529.107.54.1.558.092.583.087.613.041.32.08.671.116 1.097.113 1.224.243 2.949a1.5 1.5 0 1 1-2.99.243l-.205-2.5-.107-1.209-.108-1.075-.073-.653-.076-.609a38.689 38.689 0 0 0-.04-.29l-.082-.554-.043-.266-.09-.513a24.78 24.78 0 0 0-.048-.249l-.101-.486-.11-.475a23.436 23.436 0 0 0-.058-.236l-.119-.452-.124-.435-.134-.437a22.195 22.195 0 0 0-.072-.22l-.152-.446-.166-.452-.179-.461-.193-.471-.209-.483a31.394 31.394 0 0 0-.11-.246l-.233-.503-.25-.52-.27-.535-.287-.555-.307-.575-.328-.598-.35-.62-.565-.979-.618-1.04-.443-.73-.712-1.154-.772-1.23-.835-1.31c-4.531-7.073-8.763-11.81-12.613-14.721-1.296-.98-2.435-1.667-3.467-2.154-.243-.115-.441-.202-.673-.297l-.561-.227-16.43-2.515a1.5 1.5 0 0 1-1.27-1.566l.015-.144z"/><g stroke="#333" transform="translate(290.5 2.048)"><use stroke-width="2.1" xlink:href="#c"/><use stroke-width="3" xlink:href="#c"/></g><path fill="#FFF" d="M370.563 73.728l-2.66 5.781 6.558 7.73 4.206-9.103"/><path stroke="#333" stroke-width="3" stroke-linecap="round" stroke-linejoin="round" d="M370.563 73.728l-2.66 5.781 6.558 7.73 4.206-9.103"/><g fill="#91CBE5" fill-rule="nonzero"><path d="M334.171 139.463l.082.079a1.152 1.152 0 1 1-1.506 1.744c-1.013-.875-1.599-2.544-1.599-4.361 0-1.746.542-3.358 1.484-4.257a1.152 1.152 0 0 1 1.682 1.57l-.092.098c-.43.41-.77 1.421-.77 2.589 0 1.13.319 2.11.72 2.538zM320.157 139.463l-.082.079a1.152 1.152 0 1 0 1.506 1.744c1.013-.875 1.599-2.544 1.599-4.361 0-1.746-.541-3.358-1.484-4.257a1.152 1.152 0 0 0-1.682 1.57l.092.098c.43.41.77 1.421.77 2.589 0 1.13-.319 2.11-.72 2.538z"/><path d="M323.415 140.81a1.152 1.152 0 0 0 1.739 1.512c.94-1.083 1.482-3.142 1.482-5.408 0-2.178-.501-4.167-1.373-5.276a1.152 1.152 0 0 0-1.884 1.321l.073.103c.5.636.88 2.144.88 3.852 0 1.67-.365 3.145-.838 3.796l-.08.1zM330.914 140.81a1.152 1.152 0 0 1-1.74 1.512c-.94-1.083-1.482-3.142-1.482-5.408 0-2.178.501-4.167 1.373-5.276a1.152 1.152 0 0 1 1.884 1.321l-.073.103c-.5.636-.88 2.144-.88 3.852 0 1.67.365 3.145.838 3.796l.08.1z"/></g><path fill="#FFF" d="M375.812 63.353l6.967-17.675 4.032 10.48-2.999 7.195"/><path d="M381.384 45.128c.483-1.227 2.177-1.264 2.738-.12l.057.132 4.032 10.48a1.5 1.5 0 0 1 .04.96l-.055.156-3 7.194a1.5 1.5 0 0 1-2.818-1.019l.05-.136 2.767-6.64-2.433-6.324-5.555 14.092a1.5 1.5 0 0 1-1.809.892l-.137-.047a1.5 1.5 0 0 1-.892-1.809l.047-.136 6.968-17.675z" fill="#333" fill-rule="nonzero"/><path d="M377.643 107.202l15.573 58.5 11.866.083c4.776-3.185 10.462-14.24 7.629-21.46l-24.538-39.075 1.365-21.896-3.139-13.896-6.934-4.945c-2.505-.674-5.004-1.221-7.445-.541l1.452 4.31c-1.726.313-3.305.864-4.6 1.873.547 1.31-.29 2.781 2.628 3.818-.375 1.577.92 1.565 1.972 1.782 1.158 1.033 2.464 1.336 4.105 0l1.888 3.01-1.888 4.589c4.287 8.084-10.96 10.04.066 23.848z" fill="#FFF"/><path d="M379.855 63.063l-.78-.203-.736-.18c-2.75-.639-4.659-.73-6.721-.155l-.142.047a1.5 1.5 0 0 0-.877 1.877l.926 2.749-.305.092c-1.241.396-2.324.943-3.27 1.68a1.5 1.5 0 0 0-.51 1.626l.048.135c.017.04.032.086.046.14l.04.196c.007.039.014.08.02.126l.061.445c.232 1.525.794 2.515 2.226 3.268l.095.047.005.038a2.34 2.34 0 0 0 .928 1.492l.13.092c.384.262.732.381 1.334.5l.442.082.017.013c1.264.972 2.654 1.241 4.07.71l.19-.078.692 1.103-1.594 3.877a1.5 1.5 0 0 0 .062 1.273c1.052 1.984.769 3.31-.877 5.849l-.689 1.046-.408.633-.367.593c-1.218 2.014-1.727 3.41-1.84 5.35l-.013.296c-.081 2.976 1.209 6.196 4.117 9.938l.098.124 15.494 58.202a1.5 1.5 0 0 0 1.439 1.114l11.865.083a1.5 1.5 0 0 0 .843-.252c6.122-4.082 11.022-16.047 8.194-23.256l-.058-.128-.068-.122L389.7 104.86l1.335-21.414a1.5 1.5 0 0 0-.033-.424l-3.14-13.896a1.5 1.5 0 0 0-.591-.89l-6.935-4.946a1.5 1.5 0 0 0-.481-.227zm-1.038 2.828l6.246 4.454 2.964 13.128-1.351 21.683-.002.156c.011.26.09.513.229.735l24.454 38.94.068.182c1.945 5.643-1.95 15.372-6.667 19.001l-.149.11-10.238-.073-15.279-57.393a1.5 1.5 0 0 0-.277-.55c-2.792-3.497-3.885-6.235-3.749-8.564.076-1.296.425-2.303 1.32-3.816l.302-.496.165-.262.359-.557.677-1.028.177-.278c1.854-2.94 2.376-5.141 1.21-7.84l-.056-.123 1.632-3.967a1.5 1.5 0 0 0-.116-1.367l-1.888-3.01a1.5 1.5 0 0 0-2.218-.366c-.92.75-1.398.723-2.159.044a1.5 1.5 0 0 0-.695-.35l-.786-.146.009-.098a1.5 1.5 0 0 0-.996-1.482l-.326-.119c-.785-.3-.936-.484-1.04-1.137l-.067-.483.226-.122c.818-.425 1.789-.73 2.944-.94l.147-.034a1.5 1.5 0 0 0 1.007-1.92l-.89-2.642.154-.007c1.138-.033 2.434.174 4.17.611l.49.126z" fill="#333" fill-rule="nonzero"/><path stroke="#333" stroke-width="3" stroke-linecap="round" stroke-linejoin="round" d="M383.494 77.597l-5.048-5.09-4.97.487M384.834 73.03l-5.522-4.546-5.79-.155"/><path d="M379.996 63.353c-1.075-1.96.196-2.91 1.554-3.823l2.262 6.4" stroke="#333" stroke-width="2" stroke-linecap="round" stroke-linejoin="round"/><path fill="#333" fill-rule="nonzero" d="M312.5 140.3v2.1h-21v-2.1z"/><path fill="#333" fill-rule="nonzero" d="M312.5 139.85v3h-21v-3z"/><path fill="#333" fill-rule="nonzero" d="M314.123 135.082l.227 28.462-3 .023-.227-28.46z"/><g><g transform="translate(72 8)"><mask id="e" fill="#fff"><use xlink:href="#d"/></mask><g mask="url(#e)"><path d="M78.18 99.879c-7.22 14.537-7.189 36.805-6.323 57.28v10.515l10.267 20.958 13.1 3.953 21.915-3.953 3.004-66.597c-3.625-12.281-6.713-15.513-8.258-19.648-12.253 6.78-23.586 4.293-33.705-2.508z" stroke="#979797" stroke-width="1.25" fill="#F5F5F5"/><path d="M71.875 164.58c-.646-23.296 1.344-51.902 9.461-71.063-17.487 1.922-28.326 4.745-32.515 8.467-4.189 3.722-9.897 25.619-17.123 65.69" fill="#FFD3FB"/><path d="M82.717 94.102l.998-2.356-3.242.358-2.055.239-1.336.164-1.307.168-1.279.172-1.251.175-.615.09-1.21.181-1.18.186c-.196.031-.389.063-.581.095l-1.14.191-.56.098-1.097.198-1.07.201-1.042.207-1.015.21-.986.214-.483.109-.945.22-.918.225-.448.114-.876.231-.849.236-.82.24c-.27.08-.534.161-.794.243l-.766.249c-.626.208-1.224.422-1.794.64l-.67.263-.641.268c-.524.226-1.02.456-1.486.69l-.547.284c-1.154.62-2.116 1.272-2.887 1.958-.734.652-1.496 1.757-2.288 3.321l-.299.608c-.35.735-.705 1.557-1.067 2.467l-.312.802c-.104.275-.209.557-.314.846l-.318.888c-.106.304-.213.614-.32.932l-.324.976-.327 1.019-.33 1.062c-.11.361-.222.73-.333 1.106l-.337 1.15-.339 1.193-.343 1.238-.346 1.28-.349 1.326-.352 1.369-.356 1.413-.36 1.457-.362 1.501-.366 1.545-.37 1.59-.56 2.467-.57 2.568-.576 2.667-.39 1.834-.59 2.834-.398 1.946-.401 1.99-.61 3.07-.618 3.17-.627 3.272-.422 2.237-.641 3.44-.65 3.543-.439 2.418 2.953.532.637-3.504.629-3.41.621-3.315.614-3.22.606-3.126.598-3.03.59-2.935.583-2.84.573-2.743.378-1.776.375-1.732.737-3.338.363-1.604.537-2.326.529-2.23.52-2.132.341-1.367.505-1.97.332-1.26.328-1.215.323-1.173.32-1.129.315-1.085.311-1.042.307-.998.303-.954.299-.91.148-.44.292-.844.145-.406.285-.779.142-.373.28-.712c.091-.23.183-.453.274-.669l.27-.624.267-.58.261-.536c.606-1.2 1.175-2.036 1.706-2.508 1.168-1.038 2.953-2.015 5.348-2.925l.668-.247.345-.122.714-.242.744-.238c.38-.118.77-.235 1.172-.35l.82-.23.849-.226.879-.223.91-.22.939-.215.48-.106.985-.21.503-.104 1.03-.205 1.058-.201.541-.1 1.104-.195.563-.096 1.149-.19 1.178-.187.6-.091 1.223-.18 1.253-.178 1.282-.172 1.312-.17 1.536-.188-.043.11c-5.483 14.342-8.288 34.135-8.66 55.73l-.028 2.062c-.032 3.1-.013 6.235.054 9.394l.05 2.032 2.998-.084-.047-1.948a301.813 301.813 0 0 1-.065-4.843l-.005-1.924c.002-1.6.017-3.192.046-4.774l.04-1.893c.023-.944.051-1.885.084-2.82l.072-1.867c.039-.93.083-1.857.132-2.778l.104-1.836c.037-.61.076-1.218.117-1.823l.13-1.81c.158-2.102.344-4.175.555-6.215l.189-1.74c.389-3.464.857-6.827 1.404-10.066l.28-1.61c1.481-8.26 3.494-15.679 6.058-21.891l.25-.598z" fill="#333" fill-rule="nonzero"/><path d="M112.647 93.75c18.083 4.273 28.88 9.18 32.392 14.725 3.512 5.544 5.16 28.182 4.942 67.914l-28.313 3.36c-4.242 13.954-7.333 11.683-9.273-6.812-1.94-18.495-1.856-44.891.252-79.187z" fill="#FFD3FB"/><path d="M111.259 91.88l-.25 4.11-.264 4.588-.122 2.258-.17 3.341-.158 3.286-.143 3.23-.087 2.124-.082 2.099-.075 2.074-.1 3.065-.03 1.01-.056 2-.073 2.956-.058 2.9-.03 1.904-.035 2.808-.015 1.842-.009 1.818-.001 2.68.002.881.01 1.744.027 2.57.026 1.684.032 1.658.06 2.442.048 1.598.055 1.573.06 1.548.103 2.277.116 2.222.086 1.451.092 1.427.098 1.402.105 1.377.055.68.114 1.34.12 1.317.062.65.13 1.28.11 1.015.167 1.461.173 1.387.118.885.12.852.124.82.127.788.129.756.132.725.136.693.139.662.143.631.072.304.148.585.152.555.156.524.16.493.165.464c.554 1.496 1.183 2.495 1.906 3.026 1.687 1.24 3.377.347 4.693-1.75l.131-.214c.831-1.391 1.682-3.453 2.574-6.211l.134-.421 28.662-3.402.015-2.809.01-2.919v-3.698l-.007-3.122-.017-3.04-.036-3.927-.024-1.909-.043-2.795-.034-1.819-.058-2.66-.067-2.578-.076-2.497-.056-1.62-.091-2.363-.066-1.53-.07-1.494-.074-1.459-.078-1.422-.082-1.387-.086-1.352-.137-1.96-.097-1.261-.152-1.827-.107-1.173-.111-1.138-.115-1.102-.12-1.067-.123-1.031-.128-.996-.132-.96-.136-.926a86.276 86.276 0 0 0-.07-.45l-.143-.872-.147-.838-.15-.802-.156-.767-.16-.732c-.054-.238-.109-.47-.164-.697l-.168-.662c-.512-1.934-1.082-3.395-1.711-4.389-1.25-1.973-3.288-3.841-6.118-5.616l-.642-.393a43.7 43.7 0 0 0-3.212-1.73l-.786-.377a57.686 57.686 0 0 0-.402-.187l-.825-.372c-.42-.185-.848-.369-1.287-.552l-.89-.365a77.92 77.92 0 0 0-.455-.181l-.93-.36-.956-.358c-.322-.12-.65-.238-.982-.355l-1.008-.353-1.034-.35-1.061-.346-1.087-.344-1.114-.342-.566-.17-1.153-.337c-.194-.057-.39-.112-.586-.168l-1.192-.334-1.219-.331-.62-.165-1.257-.328-1.285-.325-1.31-.323-1.338-.32-1.732-.41zm2.776 3.747l.863.213 1.295.329 1.267.33 1.238.333.608.167 1.195.336c.197.056.393.112.587.169l1.153.339 1.124.341c.37.115.735.23 1.096.344l1.067.346 1.038.347.509.175.996.35.487.177.953.353.465.178.91.357.445.179.867.359.838.361c.137.06.273.121.408.182l.796.364c.13.06.259.121.387.182l.752.367c.123.061.245.122.366.184l.709.369c3.59 1.912 6.033 3.891 7.318 5.92.394.622.765 1.501 1.113 2.634l.158.54c.027.094.053.188.078.285l.154.594.15.631c.05.217.098.439.147.667l.143.703.14.739.136.774.133.81.13.846.125.882.122.918.12.953.17 1.497.11 1.042.107 1.078.103 1.113.1 1.149.095 1.184.137 1.843.128 1.922.12 2.001.113 2.081.104 2.16.096 2.24.087 2.317.054 1.59.05 1.623.046 1.66.062 2.553.054 2.633.045 2.71.037 2.789.028 2.867.024 3.944.008 3.048-.002 3.69-.01 3.067-27.97 3.32-.418 1.373-.264.833-.13.4-.258.765-.254.72-.25.673-.123.319-.244.603c-.401.967-.784 1.74-1.145 2.314l-.108.167c-.141.212-.27.378-.379.5l-.068.072-.042-.056c-.375-.536-.858-1.776-1.311-3.645l-.08-.334-.156-.705-.153-.75-.151-.798-.148-.843-.072-.44-.144-.913-.14-.96-.137-1.005-.067-.52-.133-1.076-.13-1.121-.126-1.168-.129-1.266-.122-1.291-.116-1.316-.11-1.34-.103-1.365-.097-1.39-.046-.704-.13-2.148-.078-1.463-.073-1.488-.066-1.512-.06-1.537-.077-2.35-.045-1.598-.038-1.623-.045-2.48-.03-2.535-.014-1.72-.007-2.627.002-1.782.01-1.807.014-1.83.035-2.793.049-2.848.062-2.902.077-2.958.059-2.003.065-2.027.072-2.051.119-3.124.133-3.178.147-3.233.106-2.187.17-3.325.122-2.248.127-2.272.166-2.832z" fill="#333" fill-rule="nonzero"/><path stroke="#333" stroke-width="3" stroke-linecap="round" stroke-linejoin="round" d="M149.346 164.375l-19.68-.217-2.918-28.135"/><path stroke="#333" stroke-width="3.75" d="M108.941 190.162l-12.627 2.1-13.19-2.193"/><g transform="translate(57.11 11.052)"><path d="M49.152 77.967c12.798 10.943-4.667 30.15 14.92 42.006 16.49-18.57 19.693-24.721 11.95-42.052-7.742-17.33-1.024-18.429-4.53-43.4C68.31-9.353 8.613-9.265 4.238 33.354 2.795 47.701 5.332 53.71 2.795 64.626.26 75.54 1.35 81.825 6.815 85.03l16.917-1.628 2.959-4.101c3.748 1.674 7.865 2.51 12.35 2.51 4.484 0 7.854-1.281 10.11-3.845z" fill="#E7E7E7"/><path d="M72.872 33.064l.112 1.294-.006-.045c1.102 7.854 1.296 13.057.979 19.7l-.076 1.447-.221 3.832-.05 1.136-.016.67-.004.387.001.7c.034 4.558.957 8.634 3.553 14.563l.475 1.072.436 1.003.412.98.388.956c4.827 12.132 3.659 18.942-6.294 31.521l-.793.993-.41.505-.847 1.029-.438.524-.901 1.07-.939 1.097-.975 1.126-1.013 1.157-1.05 1.188-.83.934-1.07-.647c-8.342-5.05-10.94-11.204-10.783-20.866l.02-.839.04-1.111.156-3.139.039-.9.03-.862.02-.829c.005-.27.008-.535.01-.794v-.762a46.137 46.137 0 0 0-.01-.731l-.023-.702-.015-.34-.04-.658a26.71 26.71 0 0 0-.054-.632l-.066-.607-.08-.582c-.434-2.854-1.4-4.848-3.189-6.697l-.16-.164-.162.14c-2.488 2.096-5.84 3.132-9.987 3.132l-.638-.006c-3.81-.065-7.376-.72-10.689-1.964l-.505-.196-2.658 3.684-18.077 1.74-.419-.247C.643 83.15-1.003 77.421.567 68.084l.162-.915c.172-.927.374-1.887.605-2.883.825-3.551 1.143-6.69 1.152-10.448l-.008-1.343-.034-1.57-.11-3.65-.033-1.263-.023-1.197-.014-1.141-.005-1.095c0-.716.008-1.408.023-2.089l.028-1.014c.005-.168.011-.336.018-.503l.046-1.007.059-1.015c.01-.17.022-.34.034-.513l.079-1.044.092-1.076.108-1.117c4.546-44.283 65.707-44.207 70.126-.137zm-67.142.443l-.104 1.08c-.016.177-.032.353-.046.526l-.084 1.027a88.42 88.42 0 0 0-.036.503l-.063.991-.027.49-.045.979c-.019.489-.034.979-.044 1.475l-.016 1.004-.004.512v1.048c.001.356.004.72.009 1.09l.019 1.142.027 1.203.144 4.944.022 1.287.004.77v.267c-.008 3.707-.306 6.882-1.06 10.368l-.28 1.233c-.179.794-.337 1.56-.475 2.298l-.155.871c-1.307 7.724-.19 12.219 3.43 14.723l.226.15 15.742-1.514 3.274-4.54 1.114.498c3.552 1.586 7.46 2.38 11.739 2.38 4.081 0 7.038-1.124 8.984-3.336l.977-1.11 1.124.96c2.948 2.521 4.608 5.576 5.308 9.32l.088.496.077.49.067.488c.02.163.04.326.056.49l.047.499c.013.167.026.337.036.51l.027.527.018.549c.003.093.005.188.006.284l.005.59-.003.623-.02 1.008-.024.728-.068 1.609-.184 3.719-.026.7-.016.552-.009.43c-.133 8.118 1.762 13.143 7.967 17.372l.318.213 1.117-1.273.918-1.056.883-1.027.429-.503.831-.986.403-.483.781-.948c.128-.155.254-.31.378-.464l.73-.911.354-.447.681-.877.329-.431.632-.846c6.781-9.197 7.73-14.864 4.66-23.64l-.29-.806-.313-.825a63.233 63.233 0 0 0-.164-.42l-.344-.854-.365-.875a91.8 91.8 0 0 0-.19-.446l-.397-.908-.206-.464c-2.86-6.4-3.956-10.914-4.055-15.86l-.008-.773v-.576l.017-.833.037-.948.092-1.711.107-1.81c.457-7.563.353-12.818-.836-21.292l-.01-.1C66.968-7.11 9.95-7.595 5.73 33.507z" fill="#333" fill-rule="nonzero"/><path d="M12.565 46.897C14.601 70.61 23.06 82.991 37.942 84.043c22.322 1.578 27.605-26.495 27.605-42.973-21.774-2.192-36.368-8.052-43.782-17.58-.497 1.858-.886 3.209-1.166 4.052-1.767 5.322-4.445 11.774-8.034 19.355z" fill="#FFF"/><path d="M21.765 23.49c6.732 8.652 19.385 14.28 37.958 16.882l1.422.192 1.444.18c.971.117 1.957.225 2.958.326 0 .495-.005 1-.015 1.513l-.026 1.04-.04 1.064-.056 1.084-.07 1.103c-.04.556-.085 1.118-.136 1.686l-.11 1.141C63.42 65.773 56.691 85.37 37.941 84.043 23.06 82.991 14.602 70.61 12.565 46.897l.381-.808.741-1.59c.122-.262.242-.523.36-.782l.7-1.538.339-.756.658-1.486.63-1.452.304-.713.587-1.4.56-1.365.532-1.33.505-1.296a113.44 113.44 0 0 0 1.737-4.839l.181-.567.282-.945.242-.85.363-1.325.098-.365zm1.613 6.093l-.231-.21-.314.905-.443 1.236c-.306.835-.63 1.693-.972 2.574l-.527 1.338-.556 1.372-.584 1.407-.302.716-.625 1.457-.324.742-.667 1.509-.695 1.543-.724 1.578-.372.802-.417.887.116 1.168.137 1.253c2.332 20.042 9.652 30.097 21.884 31.16l.391.03c8.815.624 15.064-3.963 19.24-12.982 3.075-6.644 4.774-15.363 5.097-23.969l.01-.344-.245-.029c-17.688-2.117-30.666-6.783-38.877-14.143z" fill="#333" fill-rule="nonzero"/><path d="M15.744 58.663c-3.13 0-6.529-.596-6.529-4.53 0-2.782 2.754-5.225 4.605-6.397l1.924 10.927z" fill="#FFF"/><path d="M13.018 46.468l1.892-1.197 2.62 14.892h-1.786c-4.973 0-8.029-1.578-8.029-6.03 0-3.001 2.298-5.762 5.303-7.665zm-.245 3.968l-.15.145c-1.158 1.143-1.908 2.42-1.908 3.553l.004.184c.062 1.63.972 2.436 2.957 2.721l.265.033-1.168-6.636z" fill="#333" fill-rule="nonzero"/><g transform="translate(46.148 40.246)"><rect fill="#FFF" x="1.742" y="27.452" width="14" height="7" rx="2.904"/><path d="M12.838 25.71H4.646A4.646 4.646 0 0 0 0 30.356v1.192a4.646 4.646 0 0 0 4.646 4.646h8.192a4.646 4.646 0 0 0 4.647-4.646v-1.192a4.646 4.646 0 0 0-4.647-4.646zm-8.192 3.484h8.192c.642 0 1.162.52 1.162 1.162v1.192c0 .642-.52 1.162-1.162 1.162H4.646c-.641 0-1.161-.52-1.161-1.162v-1.192c0-.642.52-1.162 1.161-1.162z" fill="#343434" fill-rule="nonzero"/><path d="M32.742 8.388v6.128c0 1.07-.866 1.936-1.936 1.936h-5.744v-10h5.744c1.07 0 1.936.867 1.936 1.936z" fill="#FFF"/><path d="M34.194 14.516V8.388A3.388 3.388 0 0 0 30.806 5H23.61v12.904h7.196a3.388 3.388 0 0 0 3.388-3.388zm-2.904 0l-.007.087a.484.484 0 0 1-.477.397h-4.29V7.904h4.29c.268 0 .484.217.484.484v6.128z" fill="#343434" fill-rule="nonzero"/><path d="M26.982 5.324V17.58a3.872 3.872 0 0 1-3.872 3.872h-5.4a.968.968 0 0 1-.968-.968V2.42c0-.535.434-.968.968-.968h5.4a3.872 3.872 0 0 1 3.872 3.872z" fill="#FFF"/><path d="M28.434 17.58V5.324A5.324 5.324 0 0 0 23.11 0h-5.4a2.42 2.42 0 0 0-2.42 2.42v18.064a2.42 2.42 0 0 0 2.42 2.42h5.4a5.324 5.324 0 0 0 5.324-5.324zm-2.904 0l-.005.16A2.42 2.42 0 0 1 23.11 20h-4.916V2.905l4.916-.001a2.42 2.42 0 0 1 2.42 2.42V17.58z" fill="#343434" fill-rule="nonzero"/><path d="M27.018 17.118l2.895-.227.147 1.89.055.857c.025.42.043.828.057 1.223l.018.774c.07 4.67-.718 7.492-2.595 9.193-1.132 1.027-2.266 1.545-4.213 1.805l-.465.055-.495.047-.53.04-.564.031-.918.036-1.011.024-1.111.014-2.522.024-1.452.023-.047-2.903 2.79-.04 1.549-.011.68-.01.933-.022.835-.032.505-.028.466-.034.431-.04.203-.023.381-.05a9.78 9.78 0 0 0 .516-.09l.31-.069c.643-.16 1.113-.378 1.512-.678l.18-.144a3.9 3.9 0 0 0 .087-.076c.983-.892 1.542-2.607 1.633-5.553l.013-.606a33.89 33.89 0 0 0-.006-.972l-.02-.692c-.003-.118-.008-.237-.013-.358l-.039-.745-.051-.781-.144-1.852z" fill="#343434" fill-rule="nonzero"/></g><circle fill="#333" cx="28.098" cy="48.291" r="3.5"/><circle fill="#333" cx="46.386" cy="48.291" r="3.5"/><path d="M42.412 66.254l1.942 2.286-1.143.971c-2.386 2.027-5.08 2.593-8.199 1.477l-.313-.117-1.398-.545 1.091-2.795 1.397.545c2.111.824 3.704.569 5.283-.689l.197-.162 1.143-.971zM38.465 56.254c-1.109 1.26-1.714 2.31-1.853 3.093-.112.635.052 1.338.55 2.148l.132.205-2.493 1.669c-1.006-1.503-1.41-3.035-1.143-4.546.236-1.328 1.01-2.727 2.291-4.245l.263-.305 2.253 1.98zM54.035 86.368a1.5 1.5 0 0 1 1.5 1.5c0 5.171-5.81 9.008-17.158 9-11.35-.006-17.157-3.835-17.157-9a1.5 1.5 0 1 1 3 0c0 3.182 4.267 5.995 14.159 6 9.888.007 14.156-2.811 14.156-6a1.5 1.5 0 0 1 1.5-1.5z" fill="#333" fill-rule="nonzero"/></g><g fill="#FFF" stroke="#333" stroke-linecap="round" stroke-linejoin="round" stroke-width="4.125"><path d="M173.878 181.471l-42.04 36.297c-4.94 5.187-10.18 8.133-15.718 8.837-6.566 3.235-24.309-.544-22.666-3.687l13.878-5.134c-4.28-2.754-1.751-3.19 4.258-8.727.703-3.027 6.336-3.738 16.897-2.133l26.298-26.58 19.093 1.127z"/></g><path fill="#CECECE" d="M-16.876 190.405l3.17 12.672 18.94 1.729 9.514-6.183 3.39-.335V187.31l-20.706 5.275z"/><path stroke="#333" stroke-width="4.125" stroke-linecap="round" stroke-linejoin="round" d="M64.878 181.471l-23.575-1.82-3.163-13.963"/></g></g></g><path stroke="#333" stroke-width="3" d="M124.023 129.399l.477 34.951"/><path d="M357.35 196.225c53.85-3.048 55.42-3.048 79.45-6.156C481.942 184.23 586 174.372 586 167.71c0-8.526-56.25-3.508-222.5-3.508S31 159.185 31 167.71s26.386 45.492 326.35 28.514z" fill="#EFEFEF"/><circle fill="#C5C5C5" cx="402.5" cy="173.35" r="1.5"/><g><path d="M218.234 152.556h24.578l-2.045 14.93a7.15 7.15 0 0 1-7.084 6.18h-6.32a7.15 7.15 0 0 1-7.084-6.18l-2.045-14.93z" fill="#FFF"/><path d="M244.531 151.056h-28.016l2.278 16.634a8.65 8.65 0 0 0 8.57 7.477h6.32a8.65 8.65 0 0 0 8.57-7.477l2.278-16.634zm-24.578 2.999h21.139l-1.811 13.228a5.65 5.65 0 0 1-5.598 4.884h-6.32l-.234-.005a5.65 5.65 0 0 1-5.363-4.879l-1.813-13.228zM232.7 139.306c1.88 1.998 1.282 4.302-1.188 6.229l-.199.151c-1.146.851-1.183 1.27-.015 2.26l.14.117-1.904 2.318c-2.712-2.227-2.81-4.898-.195-6.961l.187-.143c1.304-.968 1.461-1.368 1.047-1.852l-.058-.064 2.186-2.055z" fill="#C5C5C5" fill-rule="nonzero"/><path d="M236.805 135.927c3.138 3.065 3.462 6.25.665 8.767l-.187.163c-1.531 1.299-1.632 2.057-.482 3.123l.128.115-1.98 2.254c-2.664-2.34-2.537-5.17.198-7.61l.195-.17c1.465-1.242 1.414-2.426-.453-4.317l-.18-.18 2.096-2.145zM242.87 155.35c3.19 0 5.78 2.575 5.78 5.757l-.003.19-.014.256c-.218 3.293-2.906 5.867-6.189 5.982l-.23.004h-.52v-3.3h.52a3.124 3.124 0 0 0 3.11-2.73l.016-.173.005-.068a2.467 2.467 0 0 0-2.31-2.612l-.164-.006v-3.3z" fill="#C5C5C5" fill-rule="nonzero"/><path d="M243.93 171.444H216a5.556 5.556 0 0 0 5.556 5.556h16.818a5.556 5.556 0 0 0 5.555-5.556z" fill="#FFF"/><path d="M214.5 169.944h30.93v1.5a7.056 7.056 0 0 1-7.056 7.056h-16.818a7.056 7.056 0 0 1-7.056-7.056v-1.5zm3.288 3l.012.035a4.057 4.057 0 0 0 3.756 2.521h16.818l.202-.005a4.058 4.058 0 0 0 3.553-2.516l.013-.035h-24.354z" fill="#C5C5C5" fill-rule="nonzero"/></g><g><path stroke="#333" stroke-width="3" stroke-linejoin="bevel" d="M382.386 163.299l-.71-27.3 4.45 3.469"/><g fill-rule="nonzero"><path d="M346.535 130.85H433.2a4 4 0 0 1 3.996 4.18l-1.811 40.045v7.54H344.35v-7.488l-1.811-40.097a4 4 0 0 1 3.996-4.18z" fill="#FFF"/><path d="M433.2 129.35h-86.665l-.248.006a5.5 5.5 0 0 0-5.247 5.742l1.812 40.097-.002 8.92h94.035v-9.04l1.81-39.977.005-.248a5.5 5.5 0 0 0-5.5-5.5zm-86.722 3H433.2a2.5 2.5 0 0 1 2.5 2.5l-.003.113-1.81 40.044-.003 6.107H345.85v-5.987l-1.813-40.164a2.5 2.5 0 0 1 2.385-2.61l.056-.002z" fill="#C5C5C5"/><path fill="#FFF" d="M344.35 175.475h91.035v7.14H344.35z"/><path d="M436.885 173.975H342.85v10.14h94.035v-10.14zm-3 3v4.14H345.85v-4.14h88.035z" fill="#C5C5C5"/></g><g fill-rule="nonzero"><path d="M84.535 123.85H171.2a4 4 0 0 1 3.996 4.18l-1.811 40.045v7.54H82.35v-7.488l-1.811-40.097a4 4 0 0 1 3.996-4.18z" fill="#FFF"/><path d="M171.2 122.35H84.535l-.248.006a5.5 5.5 0 0 0-5.247 5.742l1.812 40.097-.002 8.92h94.035v-9.04l1.81-39.977.005-.248a5.5 5.5 0 0 0-5.5-5.5zm-86.722 3H171.2a2.5 2.5 0 0 1 2.5 2.5l-.003.113-1.81 40.044-.003 6.107H83.85v-5.987l-1.813-40.164a2.5 2.5 0 0 1 2.385-2.61l.056-.002z" fill="#C5C5C5"/></g></g></g></g></svg>