<svg width="399" height="57" xmlns="http://www.w3.org/2000/svg"><g shape-rendering="geometricPrecision" fill="none" fill-rule="evenodd"><path d="M302.236525 19.5287334c1.541622-.3843083 3.589902-.7919342 6.143971-1.2254685 2.551472-.431807 5.490947-.6485742 8.815828-.6485742 2.98711 0 5.467563.4214437 7.442225 1.2617402 1.975528.8411602 3.553526 2.0174026 4.734859 3.5304546 1.179601 1.5130519 2.010172 3.3275052 2.493444 5.4416325.480675 2.1141274.722311 4.4432947.722311 6.9892291v21.041958h-6.721647V36.3182554c0-2.3058497-.15676-4.2748899-.468549-5.9079841-.314387-1.6330943-.832303-2.9552876-1.554613-3.9639889-.722311-1.0087012-1.687124-1.7401824-2.890109-2.1978979-1.204717-.4559882-2.699571-.6839824-4.481964-.6839824-.721444 0-1.468871.0241812-2.238816.07168-.771678.0483624-1.507846.1079518-2.203308.1804954-.699792.0716799-1.3277.1563141-1.879393.2513117-.555158.0975884-.953554.1692683-1.192592.2167671v31.6350488h-6.721647V19.5287334ZM354.629252 56.7842692c-3.03561 0-5.697074-.4810331-7.986123-1.441372-2.288183-.9612025-4.216943-2.3058497-5.781084-4.0356687-1.565872-1.7289555-2.734214-3.7826299-3.504159-6.1610232-.771678-2.3775296-1.156217-5.0080983-1.156217-7.8908422 0-2.8818803.420915-5.5236759 1.264477-7.927114.841829-2.4008472 2.034422-4.4787028 3.576044-6.2327031 1.541622-1.7531366 3.433141-3.121965 5.672823-4.1073487 2.241415-.9836565 4.73486-1.4776438 7.480333-1.4776438 1.685392 0 3.371649.1442236 5.058773.4326707 1.685392.2884471 3.298898.745299 4.842253 1.3688284l-1.518238 5.6929442c-1.010716-.4801694-2.18079-.8644777-3.50416-1.1529248-1.325102-.2875835-2.735946-.4326707-4.228202-.4326707-3.757921 0-6.636771 1.1788333-8.635683 3.5321818-1.999779 2.3533484-2.999235 5.7888054-2.999235 10.30378 0 2.0174026.227779 3.867264.686801 5.5495843.457291 1.6814567 1.179601 3.1228287 2.166932 4.3223887.988198 1.2012873 2.252674 2.126218 3.794297 2.7747922 1.541622.6485742 3.420149.9732931 5.637314.9732931 1.782393 0 3.3959-.1684048 4.842253-.5052143 1.444621-.3350822 2.576588-.6952093 3.395899-1.0803812l.940563 5.6212643c-.387137.2400847-.940563.4680788-1.662873.6839824-.722311.2167671-1.543355.4076258-2.457069.5768942-.916313.1666775-1.890653.3117647-2.926484.431807-1.035832.1191788-2.036154.1804954-2.999235.1804954M391.989949 33.5810305c.047634-3.0269675-.711052-5.5133125-2.276058-7.4590352-1.565873-1.9457226-3.721546-2.9181521-6.467019-2.9181521-1.543355 0-2.903966.3005377-4.084433.9007496-1.180467.6010754-2.179923 1.3809189-2.998369 2.3421215-.820178.9612025-1.456746 2.0657649-1.915769 3.3145509-.45729 1.2496497-.75782 2.5217533-.902455 3.8197653h18.644103Zm-25.797923 3.6746781c0-3.314551.479808-6.2085219 1.444621-8.6827764.963081-2.4742544 2.241415-4.5279288 3.829805-6.1618867 1.590989-1.6330943 3.421016-2.8576991 5.493546-3.6746781 2.069931-.816979 4.189228-1.2254684 6.358758-1.2254684 5.058773 0 8.937079 1.5743685 11.634918 4.7205147C397.651514 25.37756 399 30.1697547 399 36.6071344v1.1175166c0 .4559883-.025116.8765684-.071885 1.2608766h-25.726038c.288404 3.8914453 1.419505 6.8450056 3.395899 8.8632717 1.975528 2.0174026 5.057907 3.0261039 9.249734 3.0261039 2.360068 0 4.346855-.2029493 5.962094-.6123024 1.613507-.4076259 2.829483-.8040247 3.649661-1.1891966l.938831 5.6204007c-.818446.4326706-2.252674.8895225-4.299221 1.3696919-2.048279.4801695-4.371972.7211178-6.973676.7211178-3.277246 0-6.106729-.4939872-8.491914-1.4776437-2.385184-.9845201-4.347721-2.3421215-5.889343-4.0719406-1.542489-1.7289555-2.68658-3.7826298-3.432275-6.1601595-.747427-2.3783933-1.119841-4.9839171-1.119841-7.8191622Z" fill="#333E48"/><path d="M15.4647235 50.9469286c7.322706 0 10.984492-2.4967084 10.984492-7.4935797 0-1.5372331-.32478-2.8464721-.975206-3.927717-.6504261-1.0812449-1.5303633-2.0182662-2.6380796-2.8102003-1.1094484-.7927978-2.373059-1.4767802-3.7942962-2.0536744-1.4212372-.5768942-2.9264841-1.1537885-4.5166069-1.7298191-1.8317591-.6235294-3.5656512-1.3334202-5.20254226-2.1253543-1.63948934-.7927978-3.05986045-1.7298191-4.26457765-2.811064-1.20471721-1.0812449-2.15653907-2.3645754-2.85459951-3.8551734-.69892651-1.4888708-1.04709065-3.2895062-1.04709065-5.4036336 0-4.3716146 1.49225575-7.783754 4.48023156-10.23296365C8.62269195 6.05367589 12.7417682 4.82820746 17.993677 4.82820746c3.0356102 0 5.7932087.3247189 8.2745278.97329311 2.481319.6485742 4.3000869 1.35760139 5.4563036 2.12621796l-2.2405488 5.69208067c-1.0115814-.6235294-2.5176944-1.2358318-4.5166069-1.8377709-1.9989125-.6002118-4.3243372-.9007495-6.9736757-.9007495-1.3484865 0-2.6008381.1442236-3.7579209.4318071-1.1553507.2884471-2.1677981.7219814-3.0347442 1.2971484-.866946.5768942-1.55374738 1.3101026-2.05953807 2.1978979-.50579069.8903862-.75868603 1.9353593-.75868603 3.1349193 0 1.3463744.2632883 2.475118.79419531 3.3870945.53004093.9137038 1.27660189 1.7185921 2.24054879 2.4138015.9630809.6978002 2.0837884 1.3334202 3.3603902 1.9094508 1.2766019.5768943 2.6857139 1.1529249 4.2273362 1.7298191 2.1686642.8653413 4.1554516 1.7289555 5.9620944 2.5942968 1.8075088.8644777 3.3716492 1.8982238 4.6976176 3.0986475 1.3242363 1.2012872 2.3488088 2.6305686 3.0719856 4.2869805.7223107 1.6581391 1.083466 3.6643147 1.083466 6.0176631 0 4.3716147-1.6022479 7.7353917-4.8058776 10.0878766C25.8100485 55.8237576 21.2934416 57 15.4647235 57c-1.9755283 0-3.7942962-.132133-5.4563036-.3963989-1.66200746-.2642659-3.14387025-.5768942-4.44472232-.9370213-1.299986-.3601271-2.42069345-.7435718-3.3603902-1.1520612C1.26447672 54.1068927.52917485 53.757129 0 53.4686819l2.09504739-5.7637607c1.10771625.624393 2.79483999 1.3213296 5.05877297 2.0899462 2.26479906.7686166 5.03365664 1.1520612 8.31090314 1.1520612M54.560525 56.7842692c-3.0356102 0-5.69794-.4810331-7.9861232-1.441372-2.2881832-.9612025-4.2152111-2.3058497-5.7810836-4.0356687-1.5658726-1.7289555-2.7350805-3.7826299-3.5050256-6.1610232-.7708111-2.3775296-1.1553506-5.0080983-1.1553506-7.8908422 0-2.8818803.4209148-5.5236759 1.2644767-7.927114.8418297-2.4008472 2.0344218-4.4787028 3.5769102-6.2327031 1.5407562-1.7531366 3.4331409-3.121965 5.6728236-4.1073487 2.2405488-.9836565 4.733993-1.4776438 7.4794664-1.4776438 1.6853916 0 3.3716493.1442236 5.058773.4326707 1.6853916.2884471 3.2988985.745299 4.8413869 1.3688284l-1.516506 5.6929442c-1.0124474-.4801694-2.1807893-.8644777-3.5050255-1.1529248-1.3259684-.2875835-2.7350805-.4326707-4.2282023-.4326707-3.7579209 0-6.6376367 1.1788333-8.6356832 3.5321818-1.9997786 2.3533484-2.9992348 5.7888054-2.9992348 10.30378 0 2.0174026.2286451 3.867264.6868014 5.5495843.4572902 1.6814567 1.1796009 3.1228287 2.1677981 4.3223887.986465 1.2012873 2.2509418 2.126218 3.7942962 2.7747922 1.5407562.6485742 3.4192837.9732931 5.6364483.9732931 1.7823925 0 3.3967656-.1684048 4.842253-.5052143 1.4446213-.3350822 2.5757218-.6952093 3.3958995-1.0803812l.9396967 5.6212643c-.3862717.2400847-.9396967.4680788-1.6620074.6839824-.7223107.2167671-1.5424884.4076258-2.4570688.5768942-.9163126.1666775-1.8915186.3117647-2.9273502.431807-1.0358317.1191788-2.036154.1804954-2.9983688.1804954M68.2181727 55.919446V1.15335666L74.9389531.00043181V19.1683472c1.2523516-.4793059 2.589579-.8523872 4.0108162-1.1166531 1.4203711-.2634023 2.8294832-.3972625 4.2273362-.3972625 2.9871098 0 5.4675627.4223073 7.4439572 1.2617403 1.9746623.8411601 3.5517938 2.0182662 4.733993 3.5304545 1.1787348 1.5139155 2.0101715 3.3275052 2.491712 5.4416325.4824065 2.1141274.7231767 4.4441583.7231767 6.9900927V55.919446h-6.7199143V36.31886c0-2.3058497-.1576265-4.2748899-.4702814-5.9088478-.3135209-1.6322307-.8314367-2.9544239-1.5537474-3.9631252-.7223107-1.0087013-1.6871238-1.7410461-2.8909749-2.197898-1.2047172-.4559882-2.6987051-.684846-4.4802315-.684846-.7223107 0-1.4697377.0483624-2.2396828.1442236-.7725433.0967248-1.5069791.2046765-2.2041734.3238553-.6989266.120906-1.3268345.2521753-1.8793935.3972625-.5542912.1433599-.9518219.2642659-1.1925921.3601271V55.919446h-6.7207804ZM127.766279 33.5810305c.047634-3.0269675-.711918-5.5133125-2.276058-7.4590352-1.566739-1.9457226-3.722412-2.9181521-6.468751-2.9181521-1.541623 0-2.9031.3005377-4.083567.9007496-1.180467.6010754-2.179924 1.3809189-2.998369 2.3421215-.819312.9612025-1.457613 2.0657649-1.914903 3.3145509-.459022 1.2496497-.758686 2.5217533-.903321 3.8197653h18.644969Zm-25.79879 3.6746781c0-3.314551.480675-6.2085219 1.444622-8.6827764.963081-2.4742544 2.240549-4.5279288 3.829805-6.1618867 1.590123-1.6330943 3.421016-2.8576991 5.492679-3.6746781 2.071664-.816979 4.191827-1.2254684 6.358759-1.2254684 5.058773 0 8.937079 1.5743685 11.635784 4.7205147 2.697839 3.1461463 4.046326 7.938341 4.046326 14.3757207v1.1175166c0 .4559883-.025116.8765684-.072751 1.2608766h-25.726039c.289271 3.8914453 1.420372 6.8450056 3.396766 8.8632717 1.974662 2.0174026 5.057907 3.0261039 9.249734 3.0261039 2.360068 0 4.347721-.2029493 5.962094-.6123024 1.613507-.4076259 2.829483-.8040247 3.649661-1.1891966l.938831 5.6204007c-.819312.4326706-2.252674.8895225-4.299221 1.3696919-2.048279.4801695-4.372838.7211178-6.973676.7211178-3.277246 0-6.10673-.4939872-8.491914-1.4776437-2.384318-.9845201-4.347721-2.3421215-5.889343-4.0719406-1.541623-1.7289555-2.68658-3.7826298-3.433141-6.1601595-.747427-2.3783933-1.118976-4.9839171-1.118976-7.8191622ZM165.12611 26.3747752c-.819312-.6727554-1.998913-1.320466-3.540535-1.9457226-1.542488-.624393-3.228746-.9370213-5.058773-.9370213-1.927894 0-3.577776.3489001-4.950513 1.044973-1.372737.6969366-2.492578 1.6572755-3.359524 2.8818804-.867812 1.2254684-1.493988 2.6797946-1.879394 4.3603877-.386271 1.6823203-.577675 3.4838193-.577675 5.4044971 0 4.3716147 1.084332 7.745755 3.251264 10.1241483 2.167798 2.3775297 5.058773 3.56759 8.672925 3.56759 1.830027 0 3.359524-.0837706 4.588491-.253039 1.228968-.1675411 2.179057-.3480365 2.853734-.5397588V26.3747752Zm0-25.22185035L171.847756 0v54.8386329c-1.543354.4318071-3.51715.8644778-5.925719 1.2971485-2.409434.431807-5.180024.6485742-8.311769.6485742-2.890109 0-5.491813-.4577155-7.804246-1.369692-2.311568-.9119765-4.288828-2.209125-5.925719-3.8914453-1.637758-1.680593-2.9031-3.7342674-3.794297-6.1610231-.892062-2.4250284-1.336361-5.1523218-1.336361-8.1784257 0-2.8827439.372414-5.5236759 1.119841-7.927114.745695-2.4017109 1.842152-4.4674758 3.288506-6.1972949 1.444621-1.7289555 3.215755-3.0736027 5.310802-4.0348052 2.095914-.9603389 4.492357-1.4413719 7.190196-1.4413719 2.168664 0 4.083567.2884471 5.745574.8644777 1.662008.5768942 2.902234 1.1296073 3.721546 1.6572755V1.15292485ZM207.907428 54.8386329c-1.541623.3843083-3.576044.7919342-6.105864 1.2246049-2.528953.4326706-5.45717.6485742-8.780318.6485742-2.891841 0-5.323794-.4205801-7.300188-1.2608766-1.975529-.8402966-3.565651-2.0294932-4.768636-3.5667264-1.205584-1.5372331-2.07253-3.3508227-2.600838-5.4407689-.530907-2.0899462-.796794-4.4070229-.796794-6.9538209v-21.041958h6.721646v19.6014497c0 4.563337.722311 7.8303892 2.166932 9.7994294 1.44722 1.9707674 3.878306 2.9544239 7.300188 2.9544239.722311 0 1.469738-.0233176 2.238817-.07168.770811-.0474988 1.494854-.1088154 2.16953-.1804954.67381-.0716799 1.287861-.1433599 1.843018-.2167671.551693-.07168.95009-.1554505 1.192592-.2513117V18.4476612h6.719915v36.3909717ZM225.684845 56.6397002c-4.144193-.0958612-7.081936-.9836565-8.816694-2.6659768-1.734758-1.6805931-2.601704-4.2982075-2.601704-7.8545704V1.15335666l6.719914-1.15292485V45.0379081c0 1.1062897.097001 2.0182662.290137 2.7385204.192269.7211178.50579 1.2971484.93883 1.7298191.433906.431807 1.012448.7565259 1.734758.9724295.722311.2167671 1.613507.3963988 2.673589.5406224l-.93883 5.6204007ZM253.506017 33.5810305c.048501-3.0269675-.710185-5.5133125-2.275192-7.4590352-1.566738-1.9457226-3.722411-2.9181521-6.467885-2.9181521-1.542488 0-2.903966.3005377-4.084433.9007496-1.180467.6010754-2.179923 1.3809189-2.998369 2.3421215-.819311.9612025-1.456746 2.0657649-1.914902 3.3145509-.458157 1.2496497-.758686 2.5217533-.903322 3.8197653h18.644103Zm-25.797923 3.6746781c0-3.314551.480674-6.2085219 1.444621-8.6827764.963081-2.4742544 2.241415-4.5279288 3.830672-6.1618867 1.590123-1.6330943 3.42015-2.8576991 5.492679-3.6746781 2.070797-.816979 4.190095-1.2254684 6.358759-1.2254684 5.058773 0 8.937079 1.5743685 11.634918 4.7205147 2.697839 3.1461463 4.046325 7.938341 4.046325 14.3757207v1.1175166c0 .4559883-.025116.8765684-.071884 1.2608766h-25.726039c.288405 3.8914453 1.419505 6.8450056 3.395899 8.8632717 1.975529 2.0174026 5.057907 3.0261039 9.2506 3.0261039 2.359202 0 4.346856-.2029493 5.961229-.6123024 1.613507-.4076259 2.829483-.8040247 3.649661-1.1891966l.93883 5.6204007c-.818445.4326706-2.252674.8895225-4.298355 1.3696919-2.049145.4801695-4.372837.7211178-6.973675.7211178-3.278113 0-6.107596-.4939872-8.491914-1.4776437-2.385184-.9845201-4.348588-2.3421215-5.889344-4.0719406-1.543354-1.7289555-2.687446-3.7826298-3.432275-6.1601595-.748293-2.3783933-1.120707-4.9839171-1.120707-7.8191622Z" fill="#009BDE"/><path d="M273.69564 10.7272964c2.687446 0 5.095148.476715 7.223973 1.4318722.818445.367036 1.575399.7884797 2.300308 1.2479224l4.457714-4.44502184c-1.414309-.98883817-2.929083-1.82136218-4.572036-2.45611856-2.863261-1.10283523-5.907532-1.65468465-9.131947-1.65468465-3.272916 0-6.364822.55184942-9.275717 1.65468465-2.422425.91888543-4.578964 2.2324425-6.501662 3.8966269l3.686037 4.7265601c1.306914-1.2531041 2.816491-2.2013524 4.55125-2.969969 2.154807-.9551572 4.573768-1.4318722 7.26208-1.4318722M290.456452 25.0376415c.374147 1.83518.576809 3.7886751.576809 5.8838029 0 3.0856933-.407057 5.8898483-1.215976 8.4116016-.812383 2.5226168-1.966001 4.6643798-3.460855 6.4270162-1.49572 1.7626365-3.30756 3.0088316-5.43725 3.9631252-2.128825.9551572-4.536527 1.4335995-7.223973 1.4335995-2.687446 0-5.107274-.4784423-7.261214-1.4335995-.171484-.0751344-.325646-.1649503-.491934-.2444028l-1.934822 5.527994c.232109.0967248.452959.2133127.691131.3031286 2.910029 1.1036988 6.001934 1.6555482 9.275717 1.6555482 3.223549 0 6.26782-.5518494 9.131947-1.6555482 2.861528-1.1036989 5.378356-2.7462929 7.543556-4.930373 2.166066-2.1832165 3.885235-4.9061918 5.16097-8.1697896 1.274004-3.2627341 1.913171-7.0298189 1.913171-11.302118 0-4.2412089-.633104-7.9832489-1.890653-11.2313016l-5.376624 5.3613165Z" fill="#333E48"/><path d="M290.60282 11.4222467s2.007573 1.895633 3.518016 4.6911519l-21.730812 21.4668562-8.537816-11.1829393 3.298033-4.5218835 5.671091 7.3795826 17.781488-17.8327679Z" fill="#009BDE"/></g></svg>