<svg width="100" height="90" xmlns="http://www.w3.org/2000/svg"><g transform="translate(8.662 10.62)" fill="none" fill-rule="evenodd"><path fill="#FFF" d="M17.338 18.09l51.272.203.096 39.942H16.138"/><path fill="#3E4952" fill-rule="nonzero" d="M69.41 15.874l-1.8.004.096 41.452-56.67.005v1.8l58.473-.005z"/><path fill="#00A1E7" d="M68.538 4.822h-53v14.474h53z"/><path d="M15.538 4.822v14.474h53.873V4.822H15.538zm1.801 1.8h50.4v10.873h-50.4V6.622z" fill="#3E4952" fill-rule="nonzero"/><path fill="#FFF" d="M17.338 4.822h-9v54.275h9z"/><path d="M8.338 4.822v54.275h9V4.822h-9zm1.801 1.8h5.4v50.675h-5.4V6.622zM64.721 5.58c.116-3.36-2.489-6.183-5.823-6.3-3.26-.115-6.002 2.397-6.233 5.648l-.012.228-.031.9 1.799.062.03-.9c.083-2.37 2.047-4.222 4.383-4.14 2.338.083 4.17 2.07 4.088 4.44-.08 2.302-1.932 4.114-4.177 4.143l-.206-.003-.9-.031-.063 1.799.9.031c3.335.118 6.129-2.515 6.245-5.876zM49.61 5.58c.116-3.36-2.489-6.183-5.823-6.3-3.26-.115-6.002 2.397-6.233 5.648l-.012.228-.032.9 1.8.062.03-.9c.082-2.37 2.047-4.222 4.383-4.14 2.337.083 4.17 2.07 4.088 4.44-.08 2.302-1.932 4.114-4.178 4.143l-.205-.003-.9-.031-.063 1.799.9.031c3.335.118 6.129-2.515 6.245-5.876zM33.894 5.58c.116-3.36-2.488-6.183-5.823-6.3-3.259-.115-6.002 2.397-6.233 5.648l-.012.228-.031.9 1.799.062.03-.9c.083-2.37 2.047-4.222 4.384-4.14 2.337.083 4.17 2.07 4.087 4.44-.08 2.302-1.932 4.114-4.177 4.143l-.206-.003-.899-.031-.063 1.799.899.031c3.335.118 6.13-2.515 6.245-5.876zM50.569 43.962l1.128 1.402-.702.564c-2.65 2.132-5.343 3.214-8.064 3.214-2.607 0-5.189-.994-7.732-2.953l-.332-.26-.7-.565 1.127-1.402.701.564c2.35 1.889 4.657 2.816 6.936 2.816 2.176 0 4.377-.845 6.616-2.565l.32-.251.702-.564z" fill="#3E4952" fill-rule="nonzero"/><ellipse fill="#3E4952" transform="matrix(-1 0 0 1 99.593 0)" cx="49.796" cy="32.069" rx="2.72" ry="2.749"/><ellipse fill="#3E4952" transform="matrix(-1 0 0 1 70.58 0)" cx="35.29" cy="32.069" rx="2.72" ry="2.749"/><path d="M9.641 34.375l-.883.17c-4.471.863-7.321 2.416-8.481 4.761-.846 1.71.25 3.336 3.204 5.016l.482.266.252.133.528.267c.09.045.183.09.276.134l.574.27.604.27.635.272.33.137.68.274.71.276.742.278.771.28.801.283.832.284 1.28.428.57-1.708-1.268-.423-.801-.275-.769-.272-.736-.268-.703-.265a64.626 64.626 0 0 1-.34-.13l-.655-.26-.622-.256-.59-.25-.559-.248-.526-.242-.494-.238-.462-.233-.431-.228-.4-.223-.367-.218-.336-.212a9.486 9.486 0 0 1-.579-.407l-.243-.195c-.72-.607-.973-1.121-.777-1.519.827-1.67 3.078-2.938 6.817-3.713l.392-.078.883-.17-.34-1.768zM47.918 57.793l-1.796.115.273 4.13.164 2.263.122 1.53.023.267c.106 1.224.198 2.466.278 3.728l.075 1.267.05.899 1.796-.1-.05-.898a164.855 164.855 0 0 0-.253-3.807l-.172-2.077-.181-2.399-.239-3.522-.09-1.396zM32.202 66.069l.029-.997.028-1.526.016-1.75.003-1.977-.003-1.43-1.8.005.003 2.434-.006 1.407-.019 1.679-.021 1.11-.019.67-.01.313a90.212 90.212 0 0 1-.287 4.615l-.147 1.611 1.792.166.083-.896c.181-1.958.3-3.77.358-5.434zM86.507 25.935L84.97 25l-.469.768a71.87 71.87 0 0 1-.497.804l-.487.764c-2.165 3.343-4.006 5.45-5.467 6.303-1.583.924-4.25 1.244-7.975.906l-1.313-.132-.183 1.79.896.092c4.289.437 7.441.09 9.483-1.101 1.553-.907 3.302-2.802 5.285-5.698l.5-.746c.253-.383.51-.781.77-1.196l.525-.85.469-.768z" fill="#3E4952" fill-rule="nonzero"/></g></svg>