<svg width="100" height="90" xmlns="http://www.w3.org/2000/svg"><g fill="none" fill-rule="evenodd"><g fill-rule="nonzero"><path d="M22.559 13.427h55.296a4.452 4.452 0 0 1 4.452 4.452v46.507c0 2.457-1.99 4.45-4.447 4.452l-55.29.065a4.452 4.452 0 0 1-4.458-4.451l-.005-46.573a4.451 4.451 0 0 1 4.452-4.452z" fill="#FFF"/><path d="M23.985 13.427h52.924a5 5 0 0 1 5 5v16.625c-3.483.454-12.208-.1-26.174-1.662 4.203-8.714 2.276-13.07-5.778-13.07-8.055 0-10.03 4.356-5.925 13.07-11.926 1.6-20.275 2.17-25.047 1.707v-16.67a5 5 0 0 1 5-5z" fill="#7D8BE6"/><path d="M49.957 19.42c7.688 0 10.38 3.9 7.956 11.063l-.202.572c-.035.097-.072.194-.109.291l-.234.593c-.04.1-.082.2-.125.301l-.17.392 1.952.213 3.014.313 2.27.224 2.142.199 1.525.134 1.921.157 2.223.162 1.24.08 1.166.065 1.095.052 1.024.038.952.025.88.011h.546l.515-.005.483-.012.663-.03.403-.027.37-.033.335-.039.233 1.785-.351.041-.382.035-.411.029-.443.023-.472.017-.766.014-.55.002-.88-.009-.624-.013-.656-.019-1.04-.04-1.11-.053-1.586-.092-1.27-.084-.885-.064-1.385-.107-1.955-.164-2.078-.187-2.77-.268-2.964-.305-2.51-.271-2.564-.286.552-1.144c3.94-8.171 2.345-11.78-4.968-11.78-.657 0-1.268.03-1.834.088l-.474.058c-4.932.695-6.055 3.898-3.475 10.126l.252.593.275.61.67 1.425-2.561.34-1.956.25-1.887.23-1.818.21-1.174.13-1.703.177-1.097.107-1.59.143-1.02.085-1.475.11-.945.062-.914.054-.884.044-.854.036-.823.027-.793.018-.762.009h-.732c-.12 0-.238-.002-.355-.003l-.687-.014a44.95 44.95 0 0 1-.331-.01l-.642-.026-.61-.036-.58-.044-.28-.026.174-1.791.557.048.589.039.306.016.637.025.67.016.346.005.717.002.75-.006.78-.016.814-.025.845-.033.877-.043.91-.052.94-.061.973-.07 1.005-.08 1.567-.135 1.084-.102 1.116-.111 1.148-.12 1.782-.198 1.853-.218 1.924-.238 1.454-.188-.052-.119c-3.541-8.373-1.156-13.007 6.996-13.116l.297-.002z" fill="#3E4952"/><path d="M76.46 13.634c1.505 0 2.868.61 3.854 1.596a5.435 5.435 0 0 1 1.597 3.856v44.098c0 1.504-.609 2.866-1.594 3.852a5.435 5.435 0 0 1-3.851 1.6l-52.5.061a5.435 5.435 0 0 1-3.857-1.592 5.435 5.435 0 0 1-1.602-3.854l-.004-44.165c0-1.46.573-2.785 1.506-3.763a5.437 5.437 0 0 1 3.713-1.685z" stroke="#3E4952" stroke-width="2"/></g><g transform="translate(38.6 39.664)" fill="#3E4952"><ellipse transform="matrix(-1 0 0 1 40.387 0)" cx="20.193" cy="3.015" rx="3" ry="3.015"/><ellipse transform="matrix(-1 0 0 1 6 0)" cx="3" cy="3.015" rx="3" ry="3.015"/></g><path d="M59.478 54.733l.828 1.597-.798.415c-3.225 1.673-6.466 2.513-9.715 2.513-3.086 0-6.166-.759-9.23-2.268l-.484-.245-.8-.415.83-1.597.799.414c2.975 1.544 5.934 2.311 8.885 2.311 2.796 0 5.599-.689 8.416-2.074l.47-.237.799-.414zM41.11 67.996l1.8.031-.075 3.865-.076 2.97-.072 2.128-.065 1.478-.055.99-.058.82-.093 1.074-1.793-.156.093-1.07.056-.8.067-1.244.038-.876.072-2.042.066-2.43.06-2.814zM57.11 67.996l1.8.031-.075 3.865-.076 2.97-.072 2.128-.065 1.478-.055.99-.058.82-.093 1.074-1.793-.156.093-1.07.056-.8.067-1.244.038-.876.072-2.042.066-2.43.06-2.814zM12.723 56.071l-1.799-.05.026-.9c.098-3.49.58-6.257 1.462-8.31.848-1.976 2.454-3.98 4.808-6.027l.378-.323.688-.58 1.16 1.376-.687.58c-2.365 1.994-3.925 3.894-4.693 5.683-.738 1.72-1.176 4.102-1.3 7.14l-.017.512-.026.9zM88.059 26.872l1.799.051-.025.9c-.1 3.49-.581 6.257-1.463 8.31-.848 1.976-2.454 3.979-4.808 6.026l-.378.324-.688.58-1.16-1.376.688-.58c2.364-1.994 3.924-3.895 4.692-5.684.739-1.72 1.177-4.102 1.3-7.139l.017-.512.026-.9z" fill="#3E4952" fill-rule="nonzero"/></g></svg>