<svg width="196" height="34" xmlns="http://www.w3.org/2000/svg"><g fill="none" fill-rule="evenodd"><path d="M140.969 11.675c.876-.228 2.041-.47 3.494-.726 1.45-.256 3.123-.384 5.014-.384 1.698 0 3.11.25 4.232.747 1.124.499 2.021 1.195 2.693 2.091.67.896 1.143 1.97 1.418 3.223.273 1.252.41 2.632.41 4.14v12.461h-3.822V21.62c0-1.366-.09-2.532-.266-3.5-.18-.967-.474-1.75-.885-2.347a3.523 3.523 0 0 0-1.643-1.302c-.685-.27-1.536-.405-2.55-.405-.41 0-.835.014-1.272.043a29.35 29.35 0 0 0-1.254.106c-.398.043-.755.093-1.068.15-.316.057-.543.1-.679.128v18.735h-3.822V11.675ZM170.765 33.74c-1.726 0-3.24-.285-4.541-.854-1.302-.57-2.399-1.366-3.288-2.39-.89-1.024-1.555-2.24-1.993-3.65-.439-1.407-.658-2.965-.658-4.672 0-1.707.24-3.272.72-4.695.478-1.422 1.156-2.653 2.033-3.692a9.151 9.151 0 0 1 3.226-2.432c1.275-.583 2.693-.875 4.255-.875.958 0 1.917.085 2.877.256.958.17 1.876.441 2.754.81l-.864 3.372a8.974 8.974 0 0 0-1.993-.683 10.891 10.891 0 0 0-2.404-.256c-2.138 0-3.775.698-4.912 2.092-1.137 1.394-1.705 3.429-1.705 6.103 0 1.194.13 2.29.39 3.286s.671 1.85 1.233 2.56a5.52 5.52 0 0 0 2.157 1.644c.877.384 1.946.576 3.207.576 1.013 0 1.93-.1 2.753-.3.822-.198 1.466-.411 1.932-.64l.535 3.33c-.22.142-.535.277-.946.405-.41.129-.878.242-1.397.342a25.11 25.11 0 0 1-1.665.256c-.589.07-1.158.106-1.706.106M192.013 19.997c.027-1.792-.404-3.265-1.294-4.417-.89-1.153-2.117-1.728-3.678-1.728-.878 0-1.652.178-2.323.533a5.508 5.508 0 0 0-1.705 1.387 6.454 6.454 0 0 0-1.09 1.963c-.26.74-.43 1.494-.513 2.262h10.603Zm-14.672 2.177c0-1.963.273-3.677.822-5.143.548-1.465 1.275-2.681 2.178-3.649a8.84 8.84 0 0 1 3.124-2.176 9.43 9.43 0 0 1 3.617-.726c2.877 0 5.082.932 6.617 2.796 1.534 1.863 2.301 4.701 2.301 8.514v.661c0 .27-.014.52-.04.747h-14.632c.164 2.305.807 4.054 1.932 5.25 1.123 1.194 2.876 1.792 5.26 1.792 1.342 0 2.472-.12 3.39-.363.918-.241 1.61-.476 2.076-.704l.534 3.328c-.465.257-1.28.527-2.445.812-1.165.284-2.486.427-3.966.427-1.864 0-3.473-.293-4.83-.875-1.356-.584-2.472-1.388-3.349-2.412-.877-1.024-1.528-2.24-1.952-3.648-.425-1.409-.637-2.952-.637-4.631ZM124.737 6.462c1.528 0 2.898.283 4.108.848.466.218.896.467 1.309.74l2.535-2.633a12.05 12.05 0 0 0-2.6-1.455c-1.629-.653-3.36-.98-5.194-.98-1.861 0-3.62.327-5.275.98a12.162 12.162 0 0 0-3.698 2.308l2.096 2.8c.744-.743 1.602-1.304 2.589-1.76 1.225-.565 2.601-.848 4.13-.848M134.27 14.938c.212 1.086.327 2.243.327 3.484 0 1.828-.231 3.489-.691 4.982-.462 1.494-1.119 2.762-1.969 3.806-.85 1.044-1.88 1.782-3.092 2.348-1.21.565-2.58.849-4.108.849-1.529 0-2.905-.284-4.13-.85-.098-.044-.185-.097-.28-.144l-1.1 3.274c.132.057.257.126.393.18 1.655.653 3.413.98 5.275.98 1.834 0 3.565-.327 5.194-.98a12.082 12.082 0 0 0 4.29-2.92c1.232-1.294 2.21-2.906 2.935-4.84.725-1.932 1.088-4.163 1.088-6.693 0-2.512-.36-4.728-1.075-6.652l-3.058 3.176Z" fill="#333E48"/><path d="M134.352 6.874s1.142 1.123 2.001 2.778l-12.359 12.714-4.855-6.623 1.875-2.678 3.226 4.37 10.112-10.561ZM8.858 30.39c4.195 0 6.292-1.49 6.292-4.47 0-.918-.186-1.699-.559-2.344a5.536 5.536 0 0 0-1.51-1.676 10.38 10.38 0 0 0-2.174-1.225 72.245 72.245 0 0 0-2.587-1.032 25.826 25.826 0 0 1-2.98-1.268A10.406 10.406 0 0 1 2.898 16.7a7.104 7.104 0 0 1-1.635-2.3c-.4-.888-.6-1.962-.6-3.223 0-2.608.855-4.642 2.566-6.104 1.71-1.461 4.07-2.192 7.078-2.192 1.739 0 3.318.193 4.74.58 1.42.387 2.463.81 3.125 1.268l-1.283 3.396c-.58-.373-1.442-.738-2.587-1.096-1.146-.358-2.477-.537-3.995-.537-.773 0-1.49.085-2.152.257a5.416 5.416 0 0 0-1.739.774c-.497.344-.89.781-1.18 1.311-.29.53-.434 1.154-.434 1.87 0 .802.151 1.476.455 2.02a4.62 4.62 0 0 0 1.283 1.44 10.91 10.91 0 0 0 1.925 1.14c.731.343 1.539.687 2.422 1.03a54.79 54.79 0 0 1 3.415 1.548 11.097 11.097 0 0 1 2.69 1.848 7.407 7.407 0 0 1 1.76 2.558c.413.989.62 2.185.62 3.59 0 2.607-.917 4.613-2.752 6.017C14.785 33.298 12.197 34 8.858 34c-1.131 0-2.173-.079-3.125-.236-.952-.158-1.8-.344-2.546-.56a14.365 14.365 0 0 1-1.924-.687A16.419 16.419 0 0 1 0 31.894l1.2-3.439c.635.373 1.601.788 2.898 1.247 1.297.458 2.884.687 4.76.687ZM38.292 32.71c-.883.23-2.049.473-3.497.731-1.45.258-3.126.387-5.03.387-1.656 0-3.05-.25-4.18-.752-1.132-.502-2.043-1.21-2.733-2.128-.69-.917-1.186-1.999-1.49-3.245-.303-1.247-.455-2.63-.455-4.148V11.004h3.85v11.691c0 2.723.413 4.671 1.241 5.846.828 1.175 2.222 1.762 4.181 1.762.414 0 .842-.014 1.283-.043.442-.028.856-.064 1.242-.107s.738-.086 1.056-.129c.317-.043.545-.093.683-.15v-18.87h3.85V32.71ZM45.692 11.992c.47-.315 1.18-.644 2.132-.988.952-.344 2.05-.516 3.29-.516 1.546 0 2.92.287 4.12.86a8.604 8.604 0 0 1 3.042 2.407c.828 1.031 1.456 2.264 1.883 3.696.428 1.433.642 3.01.642 4.729 0 1.805-.255 3.431-.766 4.878-.51 1.447-1.235 2.672-2.173 3.675a9.559 9.559 0 0 1-3.394 2.321c-1.325.545-2.815.817-4.47.817-1.794 0-3.381-.129-4.761-.387-1.38-.258-2.511-.516-3.394-.774V.688L45.693 0v11.992Zm0 17.882c.387.114.932.222 1.635.322.704.1 1.58.15 2.629.15 2.07 0 3.725-.709 4.967-2.127 1.242-1.419 1.863-3.432 1.863-6.04 0-1.146-.11-2.22-.331-3.223-.221-1.003-.58-1.87-1.077-2.6a5.267 5.267 0 0 0-1.924-1.72c-.787-.416-1.732-.623-2.836-.623-1.048 0-2.014.186-2.897.558-.883.373-1.56.76-2.029 1.161v14.142ZM63.515 11.649c.883-.23 2.05-.473 3.498-.731 1.449-.258 3.125-.387 5.03-.387 1.38 0 2.538.193 3.476.58a6.105 6.105 0 0 1 2.36 1.698c.193-.143.497-.344.91-.602a9.867 9.867 0 0 1 1.532-.752 15.653 15.653 0 0 1 2.028-.645 9.876 9.876 0 0 1 2.401-.279c1.656 0 3.008.25 4.057.752 1.048.502 1.87 1.21 2.463 2.128.593.917.993 2.006 1.2 3.267.207 1.26.31 2.636.31 4.126v12.551h-3.849V21.664c0-1.318-.062-2.45-.186-3.396-.124-.946-.359-1.734-.704-2.364-.345-.63-.814-1.096-1.407-1.397-.594-.3-1.36-.451-2.298-.451-1.297 0-2.366.179-3.208.537-.841.358-1.414.68-1.718.967.221.745.387 1.562.497 2.45.11.888.166 1.82.166 2.794v12.551h-3.85V21.664c0-1.318-.069-2.45-.207-3.396-.138-.946-.38-1.734-.724-2.364-.345-.63-.814-1.096-1.408-1.397-.593-.3-1.345-.451-2.256-.451-.386 0-.8.014-1.241.043-.442.028-.863.064-1.263.107-.4.043-.766.093-1.097.15-.331.058-.552.1-.662.13v18.87h-3.85V11.648ZM99.874 33.355h-3.85V11.004h3.85v22.351ZM97.928 6.963c-.69 0-1.276-.236-1.76-.709-.482-.473-.724-1.11-.724-1.913 0-.802.242-1.44.725-1.912a2.421 2.421 0 0 1 1.76-.71c.689 0 1.275.237 1.758.71.483.472.725 1.11.725 1.912 0 .803-.242 1.44-.725 1.913-.483.473-1.069.71-1.759.71ZM107.506 11.004h8.155v3.353h-8.155v10.316c0 1.117.083 2.041.249 2.772.165.73.413 1.304.745 1.72.33.415.745.709 1.241.88.497.172 1.077.258 1.739.258 1.159 0 2.09-.136 2.794-.408a75.455 75.455 0 0 0 1.47-.58l.745 3.31c-.387.2-1.063.45-2.029.752-.966.3-2.07.451-3.311.451-1.463 0-2.67-.193-3.622-.58-.952-.387-1.718-.967-2.298-1.741-.579-.774-.986-1.727-1.22-2.858-.235-1.132-.352-2.443-.352-3.933V4.77l3.85-.688v6.92Z" fill="#5E6CC9"/></g></svg>